Hubballi-Regular-44_5-LatinOnly-Decomp-105 copy.ufo
<glyph name="slash" format="1">
  <advance width="395"/>
  <unicode hex="002F"/>
  <outline>
    <contour>
      <point x="370" y="604" type="curve" smooth="yes"/>
      <point x="109" y="-110" type="line" smooth="yes"/>
      <point x="101" y="-133"/>
      <point x="71" y="-143"/>
      <point x="49" y="-135" type="curve" smooth="yes"/>
      <point x="27" y="-127"/>
      <point x="11" y="-100"/>
      <point x="19" y="-78" type="curve" smooth="yes"/>
      <point x="280" y="636" type="line" smooth="yes"/>
      <point x="288" y="659"/>
      <point x="318" y="669"/>
      <point x="340" y="661" type="curve" smooth="yes"/>
      <point x="362" y="653"/>
      <point x="378" y="626"/>
    </contour>
  </outline>
</glyph>
<glyph name="two" format="1">
  <advance width="513"/>
  <unicode hex="0032"/>
  <outline>
    <contour>
      <point x="49" y="52" type="curve" smooth="yes"/>
      <point x="224" y="219" type="line" smooth="yes"/>
      <point x="321" y="313"/>
      <point x="356" y="354"/>
      <point x="356" y="410" type="curve" smooth="yes"/>
      <point x="356" y="450"/>
      <point x="322" y="485"/>
      <point x="261" y="485" type="curve" smooth="yes"/>
      <point x="214" y="485"/>
      <point x="168" y="472"/>
      <point x="125" y="445" type="curve" smooth="yes"/>
      <point x="105" y="433"/>
      <point x="77" y="440"/>
      <point x="65" y="460" type="curve" smooth="yes"/>
      <point x="52" y="480"/>
      <point x="59" y="508"/>
      <point x="79" y="521" type="curve" smooth="yes"/>
      <point x="136" y="556"/>
      <point x="198" y="573"/>
      <point x="261" y="573" type="curve" smooth="yes"/>
      <point x="394" y="573"/>
      <point x="454" y="492"/>
      <point x="454" y="410" type="curve" smooth="yes"/>
      <point x="454" y="336"/>
      <point x="417" y="279"/>
      <point x="286" y="155" type="curve" smooth="yes"/>
      <point x="111" y="-12" type="line" smooth="yes"/>
      <point x="94" y="-29"/>
      <point x="65" y="-28"/>
      <point x="48" y="-10" type="curve" smooth="yes"/>
      <point x="32" y="7"/>
      <point x="32" y="36"/>
    </contour>
    <contour>
      <point x="439" y="-33" type="curve" smooth="yes"/>
      <point x="70" y="-33" type="line" smooth="yes"/>
      <point x="46" y="-33"/>
      <point x="26" y="-13"/>
      <point x="26" y="11" type="curve" smooth="yes"/>
      <point x="26" y="35"/>
      <point x="46" y="55"/>
      <point x="70" y="55" type="curve" smooth="yes"/>
      <point x="439" y="55" type="line" smooth="yes"/>
      <point x="463" y="55"/>
      <point x="483" y="35"/>
      <point x="483" y="11" type="curve" smooth="yes"/>
      <point x="483" y="-13"/>
      <point x="463" y="-33"/>
    </contour>
  </outline>
</glyph>
<glyph name="J" format="1">
  <advance width="388"/>
  <unicode hex="004A"/>
  <outline>
    <contour>
      <point x="84" y="62" type="curve" smooth="yes"/>
      <point x="108" y="51"/>
      <point x="133" y="46"/>
      <point x="158" y="46" type="curve" smooth="yes"/>
      <point x="217" y="46"/>
      <point x="233" y="96"/>
      <point x="233" y="160" type="curve" smooth="yes"/>
      <point x="233" y="520" type="line" smooth="yes"/>
      <point x="233" y="544"/>
      <point x="258" y="564"/>
      <point x="282" y="564" type="curve" smooth="yes"/>
      <point x="306" y="564"/>
      <point x="331" y="544"/>
      <point x="331" y="520" type="curve" smooth="yes"/>
      <point x="331" y="160" type="line" smooth="yes"/>
      <point x="331" y="14"/>
      <point x="263" y="-42"/>
      <point x="158" y="-42" type="curve" smooth="yes"/>
      <point x="121" y="-42"/>
      <point x="82" y="-35"/>
      <point x="46" y="-18" type="curve" smooth="yes"/>
      <point x="25" y="-8"/>
      <point x="15" y="19"/>
      <point x="25" y="41" type="curve" smooth="yes"/>
      <point x="35" y="62"/>
      <point x="62" y="72"/>
    </contour>
  </outline>
</glyph>
<glyph name="O" format="1">
  <advance width="652"/>
  <unicode hex="004F"/>
  <outline>
    <contour>
      <point x="328" y="574" type="curve" smooth="yes"/>
      <point x="487" y="574"/>
      <point x="621" y="451"/>
      <point x="621" y="265" type="curve" smooth="yes"/>
      <point x="621" y="87"/>
      <point x="508" y="-43"/>
      <point x="328" y="-43" type="curve" smooth="yes"/>
      <point x="157" y="-43"/>
      <point x="31" y="88"/>
      <point x="31" y="262" type="curve"/>
      <point x="31" y="451"/>
      <point x="156" y="574"/>
    </contour>
    <contour>
      <point x="328" y="486" type="curve" smooth="yes"/>
      <point x="204" y="486"/>
      <point x="129" y="389"/>
      <point x="129" y="262" type="curve" smooth="yes"/>
      <point x="129" y="146"/>
      <point x="207" y="45"/>
      <point x="328" y="45" type="curve" smooth="yes"/>
      <point x="456" y="45"/>
      <point x="523" y="147"/>
      <point x="523" y="265" type="curve" smooth="yes"/>
      <point x="523" y="389"/>
      <point x="441" y="486"/>
    </contour>
  </outline>
</glyph>
<glyph name="V" format="1">
  <advance width="594"/>
  <unicode hex="0056"/>
  <outline>
    <contour>
      <point x="115" y="536" type="curve" smooth="yes"/>
      <point x="156" y="408"/>
      <point x="295" y="106"/>
      <point x="336" y="29" type="curve" smooth="yes"/>
      <point x="347" y="8"/>
      <point x="337" y="-20"/>
      <point x="316" y="-32" type="curve" smooth="yes"/>
      <point x="295" y="-43"/>
      <point x="265" y="-36"/>
      <point x="254" y="-15" type="curve" smooth="yes"/>
      <point x="211" y="64"/>
      <point x="66" y="374"/>
      <point x="23" y="506" type="curve" smooth="yes"/>
      <point x="16" y="529"/>
      <point x="33" y="556"/>
      <point x="55" y="563" type="curve" smooth="yes"/>
      <point x="78" y="570"/>
      <point x="107" y="558"/>
    </contour>
    <contour>
      <point x="257" y="23" type="curve" smooth="yes"/>
      <point x="302" y="110"/>
      <point x="430" y="388"/>
      <point x="481" y="536" type="curve" smooth="yes"/>
      <point x="489" y="558"/>
      <point x="518" y="569"/>
      <point x="540" y="562" type="curve" smooth="yes"/>
      <point x="563" y="554"/>
      <point x="579" y="527"/>
      <point x="571" y="504" type="curve" smooth="yes"/>
      <point x="518" y="352"/>
      <point x="386" y="68"/>
      <point x="339" y="-21" type="curve" smooth="yes"/>
      <point x="328" y="-42"/>
      <point x="299" y="-49"/>
      <point x="278" y="-38" type="curve" smooth="yes"/>
      <point x="257" y="-27"/>
      <point x="246" y="2"/>
    </contour>
  </outline>
</glyph>
<glyph name="d" format="1">
  <advance width="520"/>
  <unicode hex="0064"/>
  <outline>
    <contour>
      <point x="387" y="273" type="curve" smooth="yes"/>
      <point x="348" y="305"/>
      <point x="309" y="325"/>
      <point x="257" y="325" type="curve" smooth="yes"/>
      <point x="178" y="325"/>
      <point x="127" y="261"/>
      <point x="127" y="181" type="curve"/>
      <point x="127" y="109"/>
      <point x="169" y="54"/>
      <point x="235" y="54" type="curve" smooth="yes"/>
      <point x="300" y="54"/>
      <point x="342" y="103"/>
      <point x="374" y="157" type="curve" smooth="yes"/>
      <point x="386" y="177"/>
      <point x="416" y="183"/>
      <point x="436" y="171" type="curve" smooth="yes"/>
      <point x="457" y="159"/>
      <point x="466" y="130"/>
      <point x="454" y="109" type="curve" smooth="yes"/>
      <point x="404" y="25"/>
      <point x="330" y="-34"/>
      <point x="235" y="-34" type="curve" smooth="yes"/>
      <point x="123" y="-34"/>
      <point x="29" y="45"/>
      <point x="29" y="181" type="curve" smooth="yes"/>
      <point x="29" y="321"/>
      <point x="130" y="413"/>
      <point x="257" y="413" type="curve" smooth="yes"/>
      <point x="331" y="413"/>
      <point x="388" y="387"/>
      <point x="443" y="341" type="curve" smooth="yes"/>
      <point x="462" y="326"/>
      <point x="464" y="297"/>
      <point x="449" y="279" type="curve" smooth="yes"/>
      <point x="434" y="261"/>
      <point x="405" y="258"/>
    </contour>
    <contour>
      <point x="464" y="547" type="curve" smooth="yes"/>
      <point x="464" y="10" type="line" smooth="yes"/>
      <point x="464" y="-14"/>
      <point x="439" y="-34"/>
      <point x="415" y="-34" type="curve" smooth="yes"/>
      <point x="391" y="-34"/>
      <point x="366" y="-14"/>
      <point x="366" y="10" type="curve" smooth="yes"/>
      <point x="366" y="547" type="line" smooth="yes"/>
      <point x="366" y="571"/>
      <point x="391" y="591"/>
      <point x="415" y="591" type="curve" smooth="yes"/>
      <point x="439" y="591"/>
      <point x="464" y="571"/>
    </contour>
  </outline>
</glyph>
<glyph name="e" format="1">
  <advance width="483"/>
  <unicode hex="0065"/>
  <outline>
    <contour>
      <point x="91" y="237" type="curve" smooth="yes"/>
      <point x="311" y="237" type="line" smooth="yes"/>
      <point x="331" y="237"/>
      <point x="348" y="241"/>
      <point x="348" y="258" type="curve" smooth="yes"/>
      <point x="348" y="291"/>
      <point x="308" y="330"/>
      <point x="254" y="330" type="curve" smooth="yes"/>
      <point x="179" y="330"/>
      <point x="127" y="268"/>
      <point x="127" y="189" type="curve"/>
      <point x="127" y="103"/>
      <point x="188" y="58"/>
      <point x="275" y="58" type="curve" smooth="yes"/>
      <point x="307" y="58"/>
      <point x="339" y="66"/>
      <point x="362" y="74" type="curve" smooth="yes"/>
      <point x="384" y="83"/>
      <point x="410" y="71"/>
      <point x="418" y="48" type="curve" smooth="yes"/>
      <point x="427" y="26"/>
      <point x="415" y="0"/>
      <point x="392" y="-8" type="curve" smooth="yes"/>
      <point x="361" y="-20"/>
      <point x="319" y="-30"/>
      <point x="275" y="-30" type="curve" smooth="yes"/>
      <point x="130" y="-30"/>
      <point x="29" y="47"/>
      <point x="29" y="189" type="curve" smooth="yes"/>
      <point x="29" y="330"/>
      <point x="133" y="418"/>
      <point x="254" y="418" type="curve" smooth="yes"/>
      <point x="374" y="418"/>
      <point x="446" y="325"/>
      <point x="446" y="258" type="curve" smooth="yes"/>
      <point x="446" y="195"/>
      <point x="417" y="149"/>
      <point x="311" y="149" type="curve" smooth="yes"/>
      <point x="91" y="149" type="line" smooth="yes"/>
      <point x="67" y="149"/>
      <point x="47" y="169"/>
      <point x="47" y="193" type="curve" smooth="yes"/>
      <point x="47" y="217"/>
      <point x="67" y="237"/>
    </contour>
  </outline>
</glyph>
<glyph name="l" format="1">
  <advance width="224"/>
  <unicode hex="006C"/>
  <outline>
    <contour>
      <point x="63" y="10" type="curve" smooth="yes"/>
      <point x="63" y="547" type="line" smooth="yes"/>
      <point x="63" y="571"/>
      <point x="88" y="591"/>
      <point x="112" y="591" type="curve" smooth="yes"/>
      <point x="136" y="591"/>
      <point x="161" y="571"/>
      <point x="161" y="547" type="curve" smooth="yes"/>
      <point x="161" y="10" type="line" smooth="yes"/>
      <point x="161" y="-14"/>
      <point x="136" y="-34"/>
      <point x="112" y="-34" type="curve" smooth="yes"/>
      <point x="88" y="-34"/>
      <point x="63" y="-14"/>
    </contour>
  </outline>
</glyph>
<glyph name="o" format="1">
  <advance width="515"/>
  <unicode hex="006F"/>
  <outline>
    <contour>
      <point x="259" y="422" type="curve" smooth="yes"/>
      <point x="398" y="422"/>
      <point x="491" y="321"/>
      <point x="491" y="189" type="curve" smooth="yes"/>
      <point x="491" y="61"/>
      <point x="399" y="-34"/>
      <point x="259" y="-34" type="curve" smooth="yes"/>
      <point x="121" y="-34"/>
      <point x="28" y="62"/>
      <point x="28" y="191" type="curve" smooth="yes"/>
      <point x="28" y="320"/>
      <point x="119" y="422"/>
    </contour>
    <contour>
      <point x="259" y="334" type="curve" smooth="yes"/>
      <point x="173" y="334"/>
      <point x="126" y="266"/>
      <point x="126" y="191" type="curve"/>
      <point x="126" y="116"/>
      <point x="175" y="54"/>
      <point x="259" y="54" type="curve" smooth="yes"/>
      <point x="343" y="54"/>
      <point x="393" y="115"/>
      <point x="393" y="189" type="curve" smooth="yes"/>
      <point x="393" y="265"/>
      <point x="346" y="334"/>
    </contour>
  </outline>
</glyph>
<glyph name="asciitilde" format="1">
  <advance width="623"/>
  <unicode hex="007E"/>
  <outline>
    <contour>
      <point x="67" y="225" type="curve" smooth="yes"/>
      <point x="116" y="328"/>
      <point x="166" y="363"/>
      <point x="223" y="363" type="curve" smooth="yes"/>
      <point x="273" y="363"/>
      <point x="307" y="335"/>
      <point x="348" y="288" type="curve" smooth="yes"/>
      <point x="369" y="263"/>
      <point x="385" y="241"/>
      <point x="410" y="241" type="curve" smooth="yes"/>
      <point x="448" y="241"/>
      <point x="463" y="287"/>
      <point x="490" y="343" type="curve" smooth="yes"/>
      <point x="500" y="365"/>
      <point x="529" y="373"/>
      <point x="551" y="363" type="curve" smooth="yes"/>
      <point x="572" y="352"/>
      <point x="585" y="324"/>
      <point x="574" y="303" type="curve" smooth="yes"/>
      <point x="519" y="187"/>
      <point x="472" y="153"/>
      <point x="410" y="153" type="curve" smooth="yes"/>
      <point x="363" y="153"/>
      <point x="325" y="177"/>
      <point x="280" y="228" type="curve" smooth="yes"/>
      <point x="261" y="249"/>
      <point x="249" y="275"/>
      <point x="223" y="275" type="curve" smooth="yes"/>
      <point x="190" y="275"/>
      <point x="174" y="232"/>
      <point x="151" y="185" type="curve" smooth="yes"/>
      <point x="141" y="163"/>
      <point x="111" y="155"/>
      <point x="90" y="165" type="curve" smooth="yes"/>
      <point x="69" y="176"/>
      <point x="56" y="204"/>
    </contour>
  </outline>
</glyph>
<glyph name="macron" format="1">
  <advance width="495"/>
  <unicode hex="00AF"/>
  <outline>
    <contour>
      <point x="353" y="493" type="curve" smooth="yes"/>
      <point x="142" y="493" type="line" smooth="yes"/>
      <point x="118" y="493"/>
      <point x="98" y="513"/>
      <point x="98" y="537" type="curve" smooth="yes"/>
      <point x="98" y="561"/>
      <point x="118" y="581"/>
      <point x="142" y="581" type="curve" smooth="yes"/>
      <point x="353" y="581" type="line" smooth="yes"/>
      <point x="377" y="581"/>
      <point x="397" y="561"/>
      <point x="397" y="537" type="curve" smooth="yes"/>
      <point x="397" y="513"/>
      <point x="377" y="493"/>
    </contour>
  </outline>
</glyph>
<glyph name="acute" format="1">
  <advance width="495"/>
  <unicode hex="00B4"/>
  <outline>
    <contour>
      <point x="324" y="569" type="curve" smooth="yes"/>
      <point x="296" y="537"/>
      <point x="268" y="503"/>
      <point x="240" y="471" type="curve" smooth="yes"/>
      <point x="224" y="453"/>
      <point x="195" y="452"/>
      <point x="177" y="468" type="curve" smooth="yes"/>
      <point x="159" y="484"/>
      <point x="156" y="513"/>
      <point x="172" y="531" type="curve" smooth="yes"/>
      <point x="200" y="563"/>
      <point x="228" y="597"/>
      <point x="258" y="629" type="curve" smooth="yes"/>
      <point x="274" y="647"/>
      <point x="303" y="648"/>
      <point x="321" y="632" type="curve" smooth="yes"/>
      <point x="338" y="616"/>
      <point x="340" y="586"/>
    </contour>
  </outline>
</glyph>
<glyph name="onequarter" format="1">
  <advance width="730"/>
  <unicode hex="00BC"/>
  <outline>
    <contour>
      <point x="544" y="498" type="curve" smooth="yes"/>
      <point x="246" y="-11" type="line" smooth="yes"/>
      <point x="234" y="-31"/>
      <point x="207" y="-38"/>
      <point x="187" y="-26" type="curve" smooth="yes"/>
      <point x="167" y="-14"/>
      <point x="160" y="13"/>
      <point x="172" y="33" type="curve" smooth="yes"/>
      <point x="470" y="542" type="line" smooth="yes"/>
      <point x="482" y="562"/>
      <point x="509" y="569"/>
      <point x="529" y="557" type="curve" smooth="yes"/>
      <point x="549" y="545"/>
      <point x="556" y="518"/>
    </contour>
    <contour>
      <point x="616" y="285" type="curve" smooth="yes"/>
      <point x="616" y="12" type="line" smooth="yes"/>
      <point x="616" y="-11"/>
      <point x="596" y="-31"/>
      <point x="573" y="-31" type="curve" smooth="yes"/>
      <point x="550" y="-31"/>
      <point x="530" y="-11"/>
      <point x="530" y="12" type="curve" smooth="yes"/>
      <point x="530" y="285" type="line" smooth="yes"/>
      <point x="530" y="308"/>
      <point x="550" y="328"/>
      <point x="573" y="328" type="curve" smooth="yes"/>
      <point x="596" y="328"/>
      <point x="616" y="308"/>
    </contour>
    <contour>
      <point x="602" y="251" type="curve" smooth="yes"/>
      <point x="440" y="62" type="line" smooth="yes"/>
      <point x="425" y="44"/>
      <point x="397" y="42"/>
      <point x="379" y="57" type="curve" smooth="yes"/>
      <point x="361" y="72"/>
      <point x="359" y="100"/>
      <point x="374" y="118" type="curve" smooth="yes"/>
      <point x="536" y="307" type="line" smooth="yes"/>
      <point x="551" y="325"/>
      <point x="579" y="327"/>
      <point x="597" y="312" type="curve" smooth="yes"/>
      <point x="615" y="297"/>
      <point x="617" y="269"/>
    </contour>
    <contour>
      <point x="412" y="133" type="curve" smooth="yes"/>
      <point x="638" y="133" type="line" smooth="yes"/>
      <point x="661" y="133"/>
      <point x="681" y="113"/>
      <point x="681" y="90" type="curve" smooth="yes"/>
      <point x="681" y="67"/>
      <point x="661" y="47"/>
      <point x="638" y="47" type="curve" smooth="yes"/>
      <point x="412" y="47" type="line" smooth="yes"/>
      <point x="389" y="47"/>
      <point x="369" y="67"/>
      <point x="369" y="90" type="curve" smooth="yes"/>
      <point x="369" y="113"/>
      <point x="389" y="133"/>
    </contour>
    <contour>
      <point x="245" y="527" type="curve" smooth="yes"/>
      <point x="245" y="256" type="line" smooth="yes"/>
      <point x="245" y="233"/>
      <point x="225" y="213"/>
      <point x="202" y="213" type="curve" smooth="yes"/>
      <point x="179" y="213"/>
      <point x="159" y="233"/>
      <point x="159" y="256" type="curve" smooth="yes"/>
      <point x="159" y="527" type="line" smooth="yes"/>
      <point x="159" y="550"/>
      <point x="179" y="570"/>
      <point x="202" y="570" type="curve" smooth="yes"/>
      <point x="225" y="570"/>
      <point x="245" y="550"/>
    </contour>
    <contour>
      <point x="222" y="492" type="curve" smooth="yes"/>
      <point x="136" y="446" type="line" smooth="yes"/>
      <point x="116" y="435"/>
      <point x="89" y="443"/>
      <point x="78" y="464" type="curve" smooth="yes"/>
      <point x="67" y="484"/>
      <point x="75" y="511"/>
      <point x="96" y="522" type="curve" smooth="yes"/>
      <point x="182" y="568" type="line" smooth="yes"/>
      <point x="202" y="579"/>
      <point x="229" y="571"/>
      <point x="240" y="550" type="curve" smooth="yes"/>
      <point x="251" y="530"/>
      <point x="243" y="503"/>
    </contour>
  </outline>
</glyph>
<glyph name="AE" format="1">
  <advance width="773"/>
  <unicode hex="00C6"/>
  <outline>
    <contour>
      <point x="401" y="496" type="curve" smooth="yes"/>
      <point x="293" y="319"/>
      <point x="160" y="118"/>
      <point x="74" y="-14" type="curve" smooth="yes"/>
      <point x="61" y="-34"/>
      <point x="31" y="-39"/>
      <point x="11" y="-26" type="curve" smooth="yes"/>
      <point x="-9" y="-13"/>
      <point x="-17" y="16"/>
      <point x="-4" y="36" type="curve" smooth="yes"/>
      <point x="82" y="168"/>
      <point x="215" y="367"/>
      <point x="323" y="544" type="curve" smooth="yes"/>
      <point x="335" y="564"/>
      <point x="365" y="570"/>
      <point x="385" y="558" type="curve" smooth="yes"/>
      <point x="405" y="545"/>
      <point x="414" y="516"/>
    </contour>
    <contour>
      <point x="140" y="207" type="curve" smooth="yes"/>
      <point x="402" y="207" type="line" smooth="yes"/>
      <point x="426" y="207"/>
      <point x="446" y="187"/>
      <point x="446" y="163" type="curve" smooth="yes"/>
      <point x="446" y="139"/>
      <point x="426" y="119"/>
      <point x="402" y="119" type="curve" smooth="yes"/>
      <point x="140" y="119" type="line" smooth="yes"/>
      <point x="116" y="119"/>
      <point x="96" y="139"/>
      <point x="96" y="163" type="curve" smooth="yes"/>
      <point x="96" y="187"/>
      <point x="116" y="207"/>
    </contour>
    <contour>
      <point x="421" y="476" type="curve" smooth="yes"/>
      <point x="367" y="476" type="line" smooth="yes"/>
      <point x="343" y="476"/>
      <point x="323" y="496"/>
      <point x="323" y="520" type="curve" smooth="yes"/>
      <point x="323" y="544"/>
      <point x="343" y="564"/>
      <point x="367" y="564" type="curve" smooth="yes"/>
      <point x="421" y="564" type="line" smooth="yes"/>
      <point x="445" y="564"/>
      <point x="465" y="544"/>
      <point x="465" y="520" type="curve" smooth="yes"/>
      <point x="465" y="496"/>
      <point x="445" y="476"/>
    </contour>
    <contour>
      <point x="452" y="520" type="curve" smooth="yes"/>
      <point x="452" y="11" type="line" smooth="yes"/>
      <point x="452" y="-13"/>
      <point x="427" y="-33"/>
      <point x="403" y="-33" type="curve" smooth="yes"/>
      <point x="379" y="-33"/>
      <point x="354" y="-13"/>
      <point x="354" y="11" type="curve" smooth="yes"/>
      <point x="354" y="520" type="line" smooth="yes"/>
      <point x="354" y="544"/>
      <point x="379" y="564"/>
      <point x="403" y="564" type="curve" smooth="yes"/>
      <point x="427" y="564"/>
      <point x="452" y="544"/>
    </contour>
    <contour>
      <point x="411" y="55" type="curve" smooth="yes"/>
      <point x="696" y="55" type="line" smooth="yes"/>
      <point x="720" y="55"/>
      <point x="740" y="35"/>
      <point x="740" y="11" type="curve" smooth="yes"/>
      <point x="740" y="-13"/>
      <point x="720" y="-33"/>
      <point x="696" y="-33" type="curve" smooth="yes"/>
      <point x="411" y="-33" type="line" smooth="yes"/>
      <point x="387" y="-33"/>
      <point x="367" y="-13"/>
      <point x="367" y="11" type="curve" smooth="yes"/>
      <point x="367" y="35"/>
      <point x="387" y="55"/>
    </contour>
    <contour>
      <point x="411" y="564" type="curve" smooth="yes"/>
      <point x="694" y="564" type="line" smooth="yes"/>
      <point x="718" y="564"/>
      <point x="738" y="544"/>
      <point x="738" y="520" type="curve" smooth="yes"/>
      <point x="738" y="496"/>
      <point x="718" y="476"/>
      <point x="694" y="476" type="curve" smooth="yes"/>
      <point x="411" y="476" type="line" smooth="yes"/>
      <point x="387" y="476"/>
      <point x="367" y="496"/>
      <point x="367" y="520" type="curve" smooth="yes"/>
      <point x="367" y="544"/>
      <point x="387" y="564"/>
    </contour>
    <contour>
      <point x="411" y="329" type="curve" smooth="yes"/>
      <point x="648" y="329" type="line" smooth="yes"/>
      <point x="672" y="329"/>
      <point x="692" y="309"/>
      <point x="692" y="285" type="curve" smooth="yes"/>
      <point x="692" y="261"/>
      <point x="672" y="241"/>
      <point x="648" y="241" type="curve" smooth="yes"/>
      <point x="411" y="241" type="line" smooth="yes"/>
      <point x="387" y="241"/>
      <point x="367" y="261"/>
      <point x="367" y="285" type="curve" smooth="yes"/>
      <point x="367" y="309"/>
      <point x="387" y="329"/>
    </contour>
  </outline>
</glyph>
<glyph name="Udieresis" format="1">
  <advance width="627"/>
  <unicode hex="00DC"/>
  <outline>
    <contour>
      <point x="211" y="737" type="curve" smooth="yes"/>
      <point x="237" y="737"/>
      <point x="276" y="722"/>
      <point x="276" y="665" type="curve" smooth="yes"/>
      <point x="276" y="608"/>
      <point x="237" y="594"/>
      <point x="211" y="594" type="curve" smooth="yes"/>
      <point x="179" y="594"/>
      <point x="143" y="615"/>
      <point x="143" y="665" type="curve" smooth="yes"/>
      <point x="143" y="715"/>
      <point x="180" y="737"/>
    </contour>
    <contour>
      <point x="413" y="737" type="curve" smooth="yes"/>
      <point x="441" y="737"/>
      <point x="479" y="719"/>
      <point x="479" y="665" type="curve" smooth="yes"/>
      <point x="479" y="611"/>
      <point x="442" y="594"/>
      <point x="413" y="594" type="curve" smooth="yes"/>
      <point x="384" y="594"/>
      <point x="346" y="613"/>
      <point x="346" y="665" type="curve" smooth="yes"/>
      <point x="346" y="717"/>
      <point x="385" y="737"/>
    </contour>
    <contour>
      <point x="156" y="516" type="curve" smooth="yes"/>
      <point x="156" y="205" type="line" smooth="yes"/>
      <point x="156" y="104"/>
      <point x="216" y="41"/>
      <point x="311" y="41" type="curve" smooth="yes"/>
      <point x="417" y="41"/>
      <point x="471" y="104"/>
      <point x="471" y="209" type="curve" smooth="yes"/>
      <point x="471" y="516" type="line" smooth="yes"/>
      <point x="471" y="540"/>
      <point x="496" y="560"/>
      <point x="520" y="560" type="curve" smooth="yes"/>
      <point x="544" y="560"/>
      <point x="569" y="540"/>
      <point x="569" y="516" type="curve" smooth="yes"/>
      <point x="569" y="209" type="line" smooth="yes"/>
      <point x="569" y="40"/>
      <point x="473" y="-47"/>
      <point x="311" y="-47" type="curve" smooth="yes"/>
      <point x="166" y="-47"/>
      <point x="58" y="40"/>
      <point x="58" y="205" type="curve"/>
      <point x="58" y="516" type="line" smooth="yes"/>
      <point x="58" y="540"/>
      <point x="83" y="560"/>
      <point x="107" y="560" type="curve" smooth="yes"/>
      <point x="131" y="560"/>
      <point x="156" y="540"/>
    </contour>
  </outline>
</glyph>
<glyph name="Yacute" format="1">
  <advance width="568"/>
  <unicode hex="00DD"/>
  <outline>
    <contour>
      <point x="335" y="183" type="curve" smooth="yes"/>
      <point x="335" y="6" type="line" smooth="yes"/>
      <point x="335" y="-18"/>
      <point x="310" y="-38"/>
      <point x="286" y="-38" type="curve" smooth="yes"/>
      <point x="262" y="-38"/>
      <point x="237" y="-18"/>
      <point x="237" y="6" type="curve" smooth="yes"/>
      <point x="237" y="183" type="line" smooth="yes"/>
      <point x="237" y="207"/>
      <point x="262" y="227"/>
      <point x="286" y="227" type="curve" smooth="yes"/>
      <point x="310" y="227"/>
      <point x="335" y="207"/>
    </contour>
    <contour>
      <point x="108" y="539" type="curve" smooth="yes"/>
      <point x="151" y="467"/>
      <point x="275" y="282"/>
      <point x="320" y="222" type="curve" smooth="yes"/>
      <point x="334" y="203"/>
      <point x="328" y="174"/>
      <point x="309" y="160" type="curve" smooth="yes"/>
      <point x="290" y="146"/>
      <point x="261" y="149"/>
      <point x="246" y="168" type="curve" smooth="yes"/>
      <point x="201" y="228"/>
      <point x="73" y="417"/>
      <point x="28" y="491" type="curve" smooth="yes"/>
      <point x="16" y="511"/>
      <point x="25" y="540"/>
      <point x="45" y="553" type="curve" smooth="yes"/>
      <point x="66" y="565"/>
      <point x="95" y="559"/>
    </contour>
    <contour>
      <point x="250" y="216" type="curve" smooth="yes"/>
      <point x="301" y="285"/>
      <point x="418" y="468"/>
      <point x="460" y="539" type="curve" smooth="yes"/>
      <point x="472" y="559"/>
      <point x="502" y="565"/>
      <point x="523" y="553" type="curve" smooth="yes"/>
      <point x="543" y="541"/>
      <point x="552" y="512"/>
      <point x="540" y="491" type="curve" smooth="yes"/>
      <point x="496" y="418"/>
      <point x="375" y="231"/>
      <point x="322" y="162" type="curve" smooth="yes"/>
      <point x="308" y="143"/>
      <point x="278" y="140"/>
      <point x="260" y="154" type="curve" smooth="yes"/>
      <point x="241" y="168"/>
      <point x="235" y="197"/>
    </contour>
    <contour>
      <point x="439" y="674" type="curve" smooth="yes"/>
      <point x="392" y="646"/>
      <point x="343" y="614"/>
      <point x="313" y="593" type="curve" smooth="yes"/>
      <point x="293" y="579"/>
      <point x="265" y="584"/>
      <point x="251" y="604" type="curve" smooth="yes"/>
      <point x="237" y="623"/>
      <point x="242" y="651"/>
      <point x="261" y="665" type="curve" smooth="yes"/>
      <point x="293" y="688"/>
      <point x="344" y="720"/>
      <point x="393" y="750" type="curve" smooth="yes"/>
      <point x="413" y="762"/>
      <point x="441" y="755"/>
      <point x="454" y="735" type="curve" smooth="yes"/>
      <point x="466" y="714"/>
      <point x="459" y="686"/>
    </contour>
  </outline>
</glyph>
<glyph name="agrave" format="1">
  <advance width="456"/>
  <unicode hex="00E0"/>
  <outline>
    <contour>
      <point x="108" y="393" type="curve" smooth="yes"/>
      <point x="133" y="401"/>
      <point x="179" y="412"/>
      <point x="219" y="412" type="curve" smooth="yes"/>
      <point x="344" y="412"/>
      <point x="408" y="339"/>
      <point x="408" y="224" type="curve" smooth="yes"/>
      <point x="408" y="128" type="line" smooth="yes"/>
      <point x="408" y="88"/>
      <point x="413" y="61"/>
      <point x="431" y="41" type="curve" smooth="yes"/>
      <point x="447" y="23"/>
      <point x="445" y="-6"/>
      <point x="428" y="-22" type="curve" smooth="yes"/>
      <point x="410" y="-38"/>
      <point x="381" y="-38"/>
      <point x="365" y="-21" type="curve" smooth="yes"/>
      <point x="333" y="13"/>
      <point x="310" y="54"/>
      <point x="310" y="128" type="curve" smooth="yes"/>
      <point x="310" y="224" type="line" smooth="yes"/>
      <point x="310" y="279"/>
      <point x="286" y="324"/>
      <point x="219" y="324" type="curve" smooth="yes"/>
      <point x="189" y="324"/>
      <point x="153" y="315"/>
      <point x="134" y="309" type="curve" smooth="yes"/>
      <point x="112" y="302"/>
      <point x="86" y="315"/>
      <point x="79" y="338" type="curve" smooth="yes"/>
      <point x="72" y="360"/>
      <point x="85" y="386"/>
    </contour>
    <contour>
      <point x="357" y="168" type="curve" smooth="yes"/>
      <point x="322" y="169"/>
      <point x="291" y="172"/>
      <point x="261" y="172" type="curve" smooth="yes"/>
      <point x="200" y="172"/>
      <point x="158" y="159"/>
      <point x="133" y="133" type="curve" smooth="yes"/>
      <point x="120" y="121"/>
      <point x="121" y="107"/>
      <point x="121" y="94" type="curve" smooth="yes"/>
      <point x="121" y="74"/>
      <point x="138" y="53"/>
      <point x="174" y="53" type="curve" smooth="yes"/>
      <point x="237" y="53"/>
      <point x="282" y="81"/>
      <point x="322" y="135" type="curve" smooth="yes"/>
      <point x="336" y="154"/>
      <point x="366" y="158"/>
      <point x="385" y="143" type="curve" smooth="yes"/>
      <point x="404" y="129"/>
      <point x="410" y="100"/>
      <point x="396" y="81" type="curve" smooth="yes"/>
      <point x="336" y="-1"/>
      <point x="265" y="-35"/>
      <point x="174" y="-35" type="curve" smooth="yes"/>
      <point x="60" y="-35"/>
      <point x="23" y="38"/>
      <point x="23" y="94" type="curve" smooth="yes"/>
      <point x="23" y="133"/>
      <point x="38" y="167"/>
      <point x="69" y="197" type="curve" smooth="yes"/>
      <point x="108" y="235"/>
      <point x="168" y="260"/>
      <point x="261" y="260" type="curve" smooth="yes"/>
      <point x="291" y="260"/>
      <point x="324" y="257"/>
      <point x="359" y="256" type="curve" smooth="yes"/>
      <point x="383" y="255"/>
      <point x="403" y="234"/>
      <point x="402" y="211" type="curve" smooth="yes"/>
      <point x="401" y="187"/>
      <point x="380" y="167"/>
    </contour>
    <contour>
      <point x="178" y="639" type="curve" smooth="yes"/>
      <point x="208" y="601"/>
      <point x="226" y="579"/>
      <point x="254" y="536" type="curve" smooth="yes"/>
      <point x="268" y="516"/>
      <point x="260" y="487"/>
      <point x="240" y="474" type="curve" smooth="yes"/>
      <point x="220" y="461"/>
      <point x="191" y="466"/>
      <point x="178" y="486" type="curve" smooth="yes"/>
      <point x="152" y="525"/>
      <point x="136" y="547"/>
      <point x="108" y="581" type="curve" smooth="yes"/>
      <point x="93" y="600"/>
      <point x="97" y="629"/>
      <point x="115" y="644" type="curve" smooth="yes"/>
      <point x="134" y="659"/>
      <point x="163" y="657"/>
    </contour>
  </outline>
</glyph>
<glyph name="atilde" format="1">
  <advance width="456"/>
  <unicode hex="00E3"/>
  <outline>
    <contour>
      <point x="108" y="394" type="curve" smooth="yes"/>
      <point x="133" y="402"/>
      <point x="179" y="412"/>
      <point x="219" y="412" type="curve" smooth="yes"/>
      <point x="345" y="412"/>
      <point x="408" y="340"/>
      <point x="408" y="225" type="curve" smooth="yes"/>
      <point x="408" y="129" type="line" smooth="yes"/>
      <point x="408" y="87"/>
      <point x="413" y="61"/>
      <point x="432" y="40" type="curve" smooth="yes"/>
      <point x="448" y="22"/>
      <point x="445" y="-7"/>
      <point x="427" y="-23" type="curve" smooth="yes"/>
      <point x="410" y="-39"/>
      <point x="380" y="-38"/>
      <point x="364" y="-20" type="curve" smooth="yes"/>
      <point x="333" y="15"/>
      <point x="310" y="55"/>
      <point x="310" y="129" type="curve" smooth="yes"/>
      <point x="310" y="225" type="line" smooth="yes"/>
      <point x="310" y="280"/>
      <point x="285" y="324"/>
      <point x="219" y="324" type="curve" smooth="yes"/>
      <point x="189" y="324"/>
      <point x="153" y="316"/>
      <point x="134" y="310" type="curve" smooth="yes"/>
      <point x="112" y="303"/>
      <point x="86" y="316"/>
      <point x="79" y="339" type="curve" smooth="yes"/>
      <point x="72" y="361"/>
      <point x="85" y="387"/>
    </contour>
    <contour>
      <point x="357" y="169" type="curve" smooth="yes"/>
      <point x="322" y="170"/>
      <point x="291" y="172"/>
      <point x="261" y="172" type="curve" smooth="yes"/>
      <point x="200" y="172"/>
      <point x="158" y="159"/>
      <point x="132" y="134" type="curve" smooth="yes"/>
      <point x="120" y="122"/>
      <point x="121" y="107"/>
      <point x="121" y="94" type="curve" smooth="yes"/>
      <point x="121" y="75"/>
      <point x="138" y="53"/>
      <point x="174" y="53" type="curve" smooth="yes"/>
      <point x="237" y="53"/>
      <point x="282" y="82"/>
      <point x="322" y="136" type="curve" smooth="yes"/>
      <point x="336" y="155"/>
      <point x="366" y="159"/>
      <point x="385" y="144" type="curve" smooth="yes"/>
      <point x="404" y="130"/>
      <point x="410" y="101"/>
      <point x="396" y="82" type="curve" smooth="yes"/>
      <point x="336" y="0"/>
      <point x="265" y="-35"/>
      <point x="174" y="-35" type="curve" smooth="yes"/>
      <point x="60" y="-35"/>
      <point x="23" y="39"/>
      <point x="23" y="94" type="curve" smooth="yes"/>
      <point x="23" y="135"/>
      <point x="38" y="168"/>
      <point x="70" y="198" type="curve" smooth="yes"/>
      <point x="108" y="235"/>
      <point x="168" y="260"/>
      <point x="261" y="260" type="curve" smooth="yes"/>
      <point x="291" y="260"/>
      <point x="324" y="258"/>
      <point x="359" y="257" type="curve" smooth="yes"/>
      <point x="383" y="256"/>
      <point x="403" y="235"/>
      <point x="402" y="212" type="curve" smooth="yes"/>
      <point x="401" y="188"/>
      <point x="380" y="168"/>
    </contour>
    <contour>
      <point x="73" y="557" type="curve" smooth="yes"/>
      <point x="105" y="605"/>
      <point x="143" y="626"/>
      <point x="174" y="626" type="curve" smooth="yes"/>
      <point x="202" y="626"/>
      <point x="221" y="615"/>
      <point x="255" y="588" type="curve" smooth="yes"/>
      <point x="265" y="581"/>
      <point x="273" y="571"/>
      <point x="283" y="571" type="curve" smooth="yes"/>
      <point x="294" y="571"/>
      <point x="297" y="591"/>
      <point x="305" y="603" type="curve" smooth="yes"/>
      <point x="318" y="622"/>
      <point x="348" y="627"/>
      <point x="368" y="613" type="curve" smooth="yes"/>
      <point x="387" y="600"/>
      <point x="394" y="571"/>
      <point x="381" y="551" type="curve" smooth="yes"/>
      <point x="347" y="501"/>
      <point x="316" y="483"/>
      <point x="283" y="483" type="curve" smooth="yes"/>
      <point x="257" y="483"/>
      <point x="233" y="495"/>
      <point x="201" y="518" type="curve" smooth="yes"/>
      <point x="189" y="527"/>
      <point x="184" y="538"/>
      <point x="174" y="538" type="curve" smooth="yes"/>
      <point x="163" y="538"/>
      <point x="157" y="517"/>
      <point x="149" y="505" type="curve" smooth="yes"/>
      <point x="136" y="486"/>
      <point x="106" y="481"/>
      <point x="87" y="494" type="curve" smooth="yes"/>
      <point x="67" y="508"/>
      <point x="60" y="537"/>
    </contour>
  </outline>
</glyph>
<glyph name="ntilde" format="1">
  <advance width="502"/>
  <unicode hex="00F1"/>
  <outline>
    <contour>
      <point x="57" y="9" type="curve" smooth="yes"/>
      <point x="57" y="368" type="line" smooth="yes"/>
      <point x="57" y="392"/>
      <point x="82" y="412"/>
      <point x="106" y="412" type="curve" smooth="yes"/>
      <point x="130" y="412"/>
      <point x="155" y="392"/>
      <point x="155" y="368" type="curve" smooth="yes"/>
      <point x="155" y="9" type="line" smooth="yes"/>
      <point x="155" y="-15"/>
      <point x="130" y="-35"/>
      <point x="106" y="-35" type="curve" smooth="yes"/>
      <point x="82" y="-35"/>
      <point x="57" y="-15"/>
    </contour>
    <contour>
      <point x="358" y="9" type="curve" smooth="yes"/>
      <point x="358" y="219" type="line" smooth="yes"/>
      <point x="358" y="284"/>
      <point x="336" y="324"/>
      <point x="289" y="324" type="curve" smooth="yes"/>
      <point x="234" y="324"/>
      <point x="183" y="287"/>
      <point x="142" y="246" type="curve" smooth="yes"/>
      <point x="125" y="229"/>
      <point x="96" y="229"/>
      <point x="79" y="246" type="curve" smooth="yes"/>
      <point x="62" y="262"/>
      <point x="61" y="291"/>
      <point x="78" y="308" type="curve" smooth="yes"/>
      <point x="137" y="369"/>
      <point x="212" y="412"/>
      <point x="289" y="412" type="curve" smooth="yes"/>
      <point x="376" y="412"/>
      <point x="456" y="376"/>
      <point x="456" y="219" type="curve" smooth="yes"/>
      <point x="456" y="9" type="line" smooth="yes"/>
      <point x="456" y="-15"/>
      <point x="431" y="-35"/>
      <point x="407" y="-35" type="curve" smooth="yes"/>
      <point x="383" y="-35"/>
      <point x="358" y="-15"/>
    </contour>
    <contour>
      <point x="96" y="557" type="curve" smooth="yes"/>
      <point x="128" y="605"/>
      <point x="166" y="626"/>
      <point x="197" y="626" type="curve" smooth="yes"/>
      <point x="225" y="626"/>
      <point x="244" y="615"/>
      <point x="278" y="588" type="curve" smooth="yes"/>
      <point x="288" y="581"/>
      <point x="296" y="571"/>
      <point x="306" y="571" type="curve" smooth="yes"/>
      <point x="317" y="571"/>
      <point x="320" y="591"/>
      <point x="328" y="603" type="curve" smooth="yes"/>
      <point x="341" y="622"/>
      <point x="371" y="627"/>
      <point x="391" y="613" type="curve" smooth="yes"/>
      <point x="410" y="600"/>
      <point x="417" y="571"/>
      <point x="404" y="551" type="curve" smooth="yes"/>
      <point x="370" y="501"/>
      <point x="339" y="483"/>
      <point x="306" y="483" type="curve" smooth="yes"/>
      <point x="280" y="483"/>
      <point x="256" y="495"/>
      <point x="224" y="518" type="curve" smooth="yes"/>
      <point x="212" y="527"/>
      <point x="207" y="538"/>
      <point x="197" y="538" type="curve" smooth="yes"/>
      <point x="186" y="538"/>
      <point x="180" y="517"/>
      <point x="172" y="505" type="curve" smooth="yes"/>
      <point x="159" y="486"/>
      <point x="129" y="481"/>
      <point x="110" y="494" type="curve" smooth="yes"/>
      <point x="90" y="508"/>
      <point x="83" y="537"/>
    </contour>
  </outline>
</glyph>
<glyph name="ugrave" format="1">
  <advance width="502"/>
  <unicode hex="00F9"/>
  <outline>
    <contour>
      <point x="445" y="368" type="curve" smooth="yes"/>
      <point x="445" y="9" type="line" smooth="yes"/>
      <point x="445" y="-15"/>
      <point x="420" y="-35"/>
      <point x="396" y="-35" type="curve" smooth="yes"/>
      <point x="372" y="-35"/>
      <point x="347" y="-15"/>
      <point x="347" y="9" type="curve" smooth="yes"/>
      <point x="347" y="368" type="line" smooth="yes"/>
      <point x="347" y="392"/>
      <point x="372" y="412"/>
      <point x="396" y="412" type="curve" smooth="yes"/>
      <point x="420" y="412"/>
      <point x="445" y="392"/>
    </contour>
    <contour>
      <point x="144" y="368" type="curve" smooth="yes"/>
      <point x="144" y="158" type="line" smooth="yes"/>
      <point x="144" y="94"/>
      <point x="165" y="53"/>
      <point x="213" y="53" type="curve" smooth="yes"/>
      <point x="267" y="53"/>
      <point x="320" y="99"/>
      <point x="355" y="148" type="curve" smooth="yes"/>
      <point x="369" y="167"/>
      <point x="398" y="171"/>
      <point x="418" y="157" type="curve" smooth="yes"/>
      <point x="437" y="143"/>
      <point x="443" y="114"/>
      <point x="429" y="94" type="curve" smooth="yes"/>
      <point x="376" y="21"/>
      <point x="291" y="-35"/>
      <point x="213" y="-35" type="curve" smooth="yes"/>
      <point x="125" y="-35"/>
      <point x="46" y="2"/>
      <point x="46" y="158" type="curve"/>
      <point x="46" y="368" type="line" smooth="yes"/>
      <point x="46" y="392"/>
      <point x="71" y="412"/>
      <point x="95" y="412" type="curve" smooth="yes"/>
      <point x="119" y="412"/>
      <point x="144" y="392"/>
    </contour>
    <contour>
      <point x="196" y="639" type="curve" smooth="yes"/>
      <point x="226" y="601"/>
      <point x="244" y="579"/>
      <point x="272" y="536" type="curve" smooth="yes"/>
      <point x="286" y="516"/>
      <point x="278" y="487"/>
      <point x="258" y="474" type="curve" smooth="yes"/>
      <point x="238" y="461"/>
      <point x="209" y="466"/>
      <point x="196" y="486" type="curve" smooth="yes"/>
      <point x="170" y="525"/>
      <point x="154" y="547"/>
      <point x="126" y="581" type="curve" smooth="yes"/>
      <point x="111" y="600"/>
      <point x="115" y="629"/>
      <point x="133" y="644" type="curve" smooth="yes"/>
      <point x="152" y="659"/>
      <point x="181" y="657"/>
    </contour>
  </outline>
</glyph>
<glyph name="ydieresis" format="1">
  <advance width="453"/>
  <unicode hex="00FF"/>
  <outline>
    <contour>
      <point x="123" y="629" type="curve" smooth="yes"/>
      <point x="152" y="629"/>
      <point x="189" y="608"/>
      <point x="189" y="558" type="curve" smooth="yes"/>
      <point x="189" y="504"/>
      <point x="153" y="488"/>
      <point x="123" y="488" type="curve" smooth="yes"/>
      <point x="93" y="488"/>
      <point x="57" y="504"/>
      <point x="57" y="558" type="curve"/>
      <point x="57" y="608"/>
      <point x="94" y="629"/>
    </contour>
    <contour>
      <point x="310" y="629" type="curve" smooth="yes"/>
      <point x="339" y="629"/>
      <point x="376" y="608"/>
      <point x="376" y="558" type="curve" smooth="yes"/>
      <point x="376" y="504"/>
      <point x="340" y="488"/>
      <point x="310" y="488" type="curve" smooth="yes"/>
      <point x="280" y="488"/>
      <point x="243" y="506"/>
      <point x="243" y="558" type="curve" smooth="yes"/>
      <point x="243" y="606"/>
      <point x="281" y="629"/>
    </contour>
    <contour>
      <point x="34" y="-131" type="curve" smooth="yes"/>
      <point x="94" y="-96"/>
      <point x="147" y="-52"/>
      <point x="201" y="39" type="curve" smooth="yes"/>
      <point x="256" y="130"/>
      <point x="315" y="271"/>
      <point x="349" y="387" type="curve" smooth="yes"/>
      <point x="356" y="409"/>
      <point x="385" y="422"/>
      <point x="407" y="415" type="curve" smooth="yes"/>
      <point x="430" y="409"/>
      <point x="448" y="382"/>
      <point x="441" y="359" type="curve" smooth="yes"/>
      <point x="405" y="237"/>
      <point x="338" y="88"/>
      <point x="281" y="-9" type="curve" smooth="yes"/>
      <point x="217" y="-118"/>
      <point x="150" y="-166"/>
      <point x="78" y="-207" type="curve" smooth="yes"/>
      <point x="57" y="-219"/>
      <point x="30" y="-212"/>
      <point x="18" y="-191" type="curve" smooth="yes"/>
      <point x="6" y="-170"/>
      <point x="13" y="-143"/>
    </contour>
    <contour>
      <point x="103" y="390" type="curve" smooth="yes"/>
      <point x="158" y="233"/>
      <point x="224" y="121"/>
      <point x="277" y="40" type="curve" smooth="yes"/>
      <point x="290" y="20"/>
      <point x="282" y="-9"/>
      <point x="262" y="-22" type="curve" smooth="yes"/>
      <point x="242" y="-35"/>
      <point x="212" y="-30"/>
      <point x="199" y="-10" type="curve" smooth="yes"/>
      <point x="144" y="75"/>
      <point x="72" y="193"/>
      <point x="13" y="358" type="curve" smooth="yes"/>
      <point x="5" y="380"/>
      <point x="21" y="408"/>
      <point x="43" y="415" type="curve" smooth="yes"/>
      <point x="66" y="423"/>
      <point x="95" y="412"/>
    </contour>
  </outline>
</glyph>
<glyph name="imacron" format="1">
  <advance width="197"/>
  <unicode hex="012B"/>
  <outline>
    <contour>
      <point x="49" y="10" type="curve" smooth="yes"/>
      <point x="49" y="369" type="line" smooth="yes"/>
      <point x="49" y="393"/>
      <point x="74" y="413"/>
      <point x="98" y="413" type="curve" smooth="yes"/>
      <point x="122" y="413"/>
      <point x="147" y="393"/>
      <point x="147" y="369" type="curve" smooth="yes"/>
      <point x="147" y="10" type="line" smooth="yes"/>
      <point x="147" y="-14"/>
      <point x="122" y="-34"/>
      <point x="98" y="-34" type="curve" smooth="yes"/>
      <point x="74" y="-34"/>
      <point x="49" y="-14"/>
    </contour>
    <contour>
      <point x="172" y="506" type="curve" smooth="yes"/>
      <point x="25" y="506" type="line" smooth="yes"/>
      <point x="1" y="506"/>
      <point x="-19" y="526"/>
      <point x="-19" y="550" type="curve" smooth="yes"/>
      <point x="-19" y="574"/>
      <point x="1" y="594"/>
      <point x="25" y="594" type="curve" smooth="yes"/>
      <point x="172" y="594" type="line" smooth="yes"/>
      <point x="196" y="594"/>
      <point x="216" y="574"/>
      <point x="216" y="550" type="curve" smooth="yes"/>
      <point x="216" y="526"/>
      <point x="196" y="506"/>
    </contour>
  </outline>
</glyph>
<glyph name="dotlessi" format="1">
  <advance width="197"/>
  <unicode hex="0131"/>
  <outline>
    <contour>
      <point x="49" y="14" type="curve" smooth="yes"/>
      <point x="49" y="374" type="line" smooth="yes"/>
      <point x="49" y="398"/>
      <point x="74" y="418"/>
      <point x="98" y="418" type="curve" smooth="yes"/>
      <point x="122" y="418"/>
      <point x="147" y="398"/>
      <point x="147" y="374" type="curve" smooth="yes"/>
      <point x="147" y="14" type="line" smooth="yes"/>
      <point x="147" y="-10"/>
      <point x="122" y="-30"/>
      <point x="98" y="-30" type="curve" smooth="yes"/>
      <point x="74" y="-30"/>
      <point x="49" y="-10"/>
    </contour>
  </outline>
</glyph>
<glyph name="uni013B" format="1">
  <advance width="472"/>
  <unicode hex="013B"/>
  <outline>
    <contour>
      <point x="168" y="527" type="curve" smooth="yes"/>
      <point x="168" y="17" type="line" smooth="yes"/>
      <point x="168" y="-7"/>
      <point x="143" y="-27"/>
      <point x="119" y="-27" type="curve" smooth="yes"/>
      <point x="95" y="-27"/>
      <point x="70" y="-7"/>
      <point x="70" y="17" type="curve" smooth="yes"/>
      <point x="70" y="527" type="line" smooth="yes"/>
      <point x="70" y="551"/>
      <point x="95" y="571"/>
      <point x="119" y="571" type="curve" smooth="yes"/>
      <point x="143" y="571"/>
      <point x="168" y="551"/>
    </contour>
    <contour>
      <point x="128" y="61" type="curve" smooth="yes"/>
      <point x="404" y="61" type="line" smooth="yes"/>
      <point x="428" y="61"/>
      <point x="448" y="41"/>
      <point x="448" y="17" type="curve" smooth="yes"/>
      <point x="448" y="-7"/>
      <point x="428" y="-27"/>
      <point x="404" y="-27" type="curve" smooth="yes"/>
      <point x="128" y="-27" type="line" smooth="yes"/>
      <point x="104" y="-27"/>
      <point x="84" y="-7"/>
      <point x="84" y="17" type="curve" smooth="yes"/>
      <point x="84" y="41"/>
      <point x="104" y="61"/>
    </contour>
    <contour>
      <point x="307" y="-93" type="curve" smooth="yes"/>
      <point x="318" y="-112"/>
      <point x="326" y="-132"/>
      <point x="326" y="-155" type="curve" smooth="yes"/>
      <point x="326" y="-210"/>
      <point x="284" y="-260"/>
      <point x="215" y="-294" type="curve" smooth="yes"/>
      <point x="194" y="-304"/>
      <point x="167" y="-295"/>
      <point x="156" y="-273" type="curve" smooth="yes"/>
      <point x="146" y="-252"/>
      <point x="155" y="-225"/>
      <point x="177" y="-214" type="curve" smooth="yes"/>
      <point x="206" y="-200"/>
      <point x="228" y="-180"/>
      <point x="228" y="-155" type="curve" smooth="yes"/>
      <point x="228" y="-150"/>
      <point x="230" y="-144"/>
      <point x="227" y="-139" type="curve" smooth="yes"/>
      <point x="215" y="-119"/>
      <point x="224" y="-90"/>
      <point x="245" y="-78" type="curve" smooth="yes"/>
      <point x="265" y="-66"/>
      <point x="295" y="-72"/>
    </contour>
  </outline>
</glyph>
<glyph name="lslash" format="1">
  <advance width="236"/>
  <unicode hex="0142"/>
  <outline>
    <contour>
      <point x="227" y="322" type="curve" smooth="yes"/>
      <point x="63" y="204" type="line" smooth="yes"/>
      <point x="44" y="190"/>
      <point x="15" y="195"/>
      <point x="1" y="214" type="curve" smooth="yes"/>
      <point x="-13" y="234"/>
      <point x="-8" y="262"/>
      <point x="11" y="276" type="curve" smooth="yes"/>
      <point x="175" y="394" type="line" smooth="yes"/>
      <point x="194" y="408"/>
      <point x="223" y="403"/>
      <point x="237" y="384" type="curve" smooth="yes"/>
      <point x="251" y="364"/>
      <point x="246" y="336"/>
    </contour>
    <contour>
      <point x="69" y="10" type="curve" smooth="yes"/>
      <point x="69" y="547" type="line" smooth="yes"/>
      <point x="69" y="571"/>
      <point x="94" y="591"/>
      <point x="118" y="591" type="curve" smooth="yes"/>
      <point x="142" y="591"/>
      <point x="167" y="571"/>
      <point x="167" y="547" type="curve" smooth="yes"/>
      <point x="167" y="10" type="line" smooth="yes"/>
      <point x="167" y="-14"/>
      <point x="142" y="-34"/>
      <point x="118" y="-34" type="curve" smooth="yes"/>
      <point x="94" y="-34"/>
      <point x="69" y="-14"/>
    </contour>
  </outline>
</glyph>
<glyph name="OE" format="1">
  <advance width="832"/>
  <unicode hex="0152"/>
  <outline>
    <contour>
      <point x="468" y="476" type="curve" smooth="yes"/>
      <point x="328" y="476" type="line" smooth="yes"/>
      <point x="205" y="476"/>
      <point x="129" y="385"/>
      <point x="129" y="263" type="curve" smooth="yes"/>
      <point x="129" y="150"/>
      <point x="207" y="55"/>
      <point x="328" y="55" type="curve" smooth="yes"/>
      <point x="498" y="55" type="line" smooth="yes"/>
      <point x="522" y="55"/>
      <point x="542" y="35"/>
      <point x="542" y="11" type="curve" smooth="yes"/>
      <point x="542" y="-13"/>
      <point x="522" y="-33"/>
      <point x="498" y="-33" type="curve" smooth="yes"/>
      <point x="328" y="-33" type="line" smooth="yes"/>
      <point x="157" y="-33"/>
      <point x="31" y="94"/>
      <point x="31" y="263" type="curve"/>
      <point x="31" y="445"/>
      <point x="155" y="564"/>
      <point x="328" y="564" type="curve" smooth="yes"/>
      <point x="468" y="564" type="line" smooth="yes"/>
      <point x="492" y="564"/>
      <point x="512" y="544"/>
      <point x="512" y="520" type="curve" smooth="yes"/>
      <point x="512" y="496"/>
      <point x="492" y="476"/>
    </contour>
    <contour>
      <point x="508" y="520" type="curve" smooth="yes"/>
      <point x="508" y="11" type="line" smooth="yes"/>
      <point x="508" y="-13"/>
      <point x="483" y="-33"/>
      <point x="459" y="-33" type="curve" smooth="yes"/>
      <point x="435" y="-33"/>
      <point x="410" y="-13"/>
      <point x="410" y="11" type="curve" smooth="yes"/>
      <point x="410" y="520" type="line" smooth="yes"/>
      <point x="410" y="544"/>
      <point x="435" y="564"/>
      <point x="459" y="564" type="curve" smooth="yes"/>
      <point x="483" y="564"/>
      <point x="508" y="544"/>
    </contour>
    <contour>
      <point x="468" y="55" type="curve" smooth="yes"/>
      <point x="752" y="55" type="line" smooth="yes"/>
      <point x="776" y="55"/>
      <point x="796" y="35"/>
      <point x="796" y="11" type="curve" smooth="yes"/>
      <point x="796" y="-13"/>
      <point x="776" y="-33"/>
      <point x="752" y="-33" type="curve" smooth="yes"/>
      <point x="468" y="-33" type="line" smooth="yes"/>
      <point x="444" y="-33"/>
      <point x="424" y="-13"/>
      <point x="424" y="11" type="curve" smooth="yes"/>
      <point x="424" y="35"/>
      <point x="444" y="55"/>
    </contour>
    <contour>
      <point x="468" y="564" type="curve" smooth="yes"/>
      <point x="750" y="564" type="line" smooth="yes"/>
      <point x="774" y="564"/>
      <point x="794" y="544"/>
      <point x="794" y="520" type="curve" smooth="yes"/>
      <point x="794" y="496"/>
      <point x="774" y="476"/>
      <point x="750" y="476" type="curve" smooth="yes"/>
      <point x="468" y="476" type="line" smooth="yes"/>
      <point x="444" y="476"/>
      <point x="424" y="496"/>
      <point x="424" y="520" type="curve" smooth="yes"/>
      <point x="424" y="544"/>
      <point x="444" y="564"/>
    </contour>
    <contour>
      <point x="468" y="329" type="curve" smooth="yes"/>
      <point x="705" y="329" type="line" smooth="yes"/>
      <point x="729" y="329"/>
      <point x="749" y="309"/>
      <point x="749" y="285" type="curve" smooth="yes"/>
      <point x="749" y="261"/>
      <point x="729" y="241"/>
      <point x="705" y="241" type="curve" smooth="yes"/>
      <point x="468" y="241" type="line" smooth="yes"/>
      <point x="444" y="241"/>
      <point x="424" y="261"/>
      <point x="424" y="285" type="curve" smooth="yes"/>
      <point x="424" y="309"/>
      <point x="444" y="329"/>
    </contour>
  </outline>
</glyph>
<glyph name="rcaron" format="1">
  <advance width="362"/>
  <unicode hex="0159"/>
  <outline>
    <contour>
      <point x="57" y="9" type="curve" smooth="yes"/>
      <point x="57" y="368" type="line" smooth="yes"/>
      <point x="57" y="392"/>
      <point x="82" y="412"/>
      <point x="106" y="412" type="curve" smooth="yes"/>
      <point x="130" y="412"/>
      <point x="155" y="392"/>
      <point x="155" y="368" type="curve" smooth="yes"/>
      <point x="155" y="9" type="line" smooth="yes"/>
      <point x="155" y="-15"/>
      <point x="130" y="-35"/>
      <point x="106" y="-35" type="curve" smooth="yes"/>
      <point x="82" y="-35"/>
      <point x="57" y="-15"/>
    </contour>
    <contour>
      <point x="68" y="255" type="curve" smooth="yes"/>
      <point x="125" y="344"/>
      <point x="195" y="398"/>
      <point x="301" y="412" type="curve" smooth="yes"/>
      <point x="325" y="415"/>
      <point x="348" y="397"/>
      <point x="351" y="374" type="curve" smooth="yes"/>
      <point x="354" y="350"/>
      <point x="336" y="327"/>
      <point x="313" y="324" type="curve" smooth="yes"/>
      <point x="235" y="314"/>
      <point x="187" y="270"/>
      <point x="146" y="205" type="curve" smooth="yes"/>
      <point x="133" y="185"/>
      <point x="103" y="180"/>
      <point x="83" y="193" type="curve" smooth="yes"/>
      <point x="63" y="206"/>
      <point x="55" y="235"/>
    </contour>
    <contour>
      <point x="128" y="634" type="curve" smooth="yes"/>
      <point x="155" y="607"/>
      <point x="193" y="568"/>
      <point x="218" y="543" type="curve" smooth="yes"/>
      <point x="235" y="526"/>
      <point x="234" y="497"/>
      <point x="217" y="480" type="curve" smooth="yes"/>
      <point x="200" y="463"/>
      <point x="171" y="462"/>
      <point x="154" y="479" type="curve" smooth="yes"/>
      <point x="129" y="504"/>
      <point x="91" y="543"/>
      <point x="64" y="570" type="curve" smooth="yes"/>
      <point x="47" y="587"/>
      <point x="48" y="616"/>
      <point x="65" y="633" type="curve" smooth="yes"/>
      <point x="82" y="650"/>
      <point x="111" y="651"/>
    </contour>
    <contour>
      <point x="161" y="543" type="curve" smooth="yes"/>
      <point x="185" y="567"/>
      <point x="224" y="607"/>
      <point x="251" y="634" type="curve" smooth="yes"/>
      <point x="268" y="651"/>
      <point x="297" y="650"/>
      <point x="314" y="633" type="curve" smooth="yes"/>
      <point x="331" y="616"/>
      <point x="332" y="587"/>
      <point x="315" y="570" type="curve" smooth="yes"/>
      <point x="288" y="543"/>
      <point x="249" y="503"/>
      <point x="225" y="479" type="curve" smooth="yes"/>
      <point x="208" y="462"/>
      <point x="179" y="463"/>
      <point x="162" y="480" type="curve" smooth="yes"/>
      <point x="145" y="497"/>
      <point x="144" y="526"/>
    </contour>
  </outline>
</glyph>
<glyph name="scaron" format="1">
  <advance width="459"/>
  <unicode hex="0161"/>
  <outline>
    <contour>
      <point x="334" y="313" type="curve" smooth="yes"/>
      <point x="306" y="321"/>
      <point x="270" y="327"/>
      <point x="231" y="327" type="curve" smooth="yes"/>
      <point x="182" y="327"/>
      <point x="146" y="310"/>
      <point x="146" y="283" type="curve" smooth="yes"/>
      <point x="146" y="258"/>
      <point x="183" y="248"/>
      <point x="228" y="244" type="curve" smooth="yes"/>
      <point x="269" y="240" type="line" smooth="yes"/>
      <point x="389" y="227"/>
      <point x="429" y="163"/>
      <point x="429" y="99" type="curve" smooth="yes"/>
      <point x="429" y="34"/>
      <point x="391" y="-39"/>
      <point x="238" y="-39" type="curve" smooth="yes"/>
      <point x="182" y="-39"/>
      <point x="125" y="-29"/>
      <point x="73" y="-6" type="curve" smooth="yes"/>
      <point x="52" y="3"/>
      <point x="41" y="30"/>
      <point x="51" y="52" type="curve" smooth="yes"/>
      <point x="60" y="73"/>
      <point x="87" y="84"/>
      <point x="109" y="74" type="curve" smooth="yes"/>
      <point x="149" y="57"/>
      <point x="194" y="49"/>
      <point x="238" y="49" type="curve" smooth="yes"/>
      <point x="293" y="49"/>
      <point x="331" y="68"/>
      <point x="331" y="99" type="curve" smooth="yes"/>
      <point x="331" y="127"/>
      <point x="305" y="147"/>
      <point x="261" y="152" type="curve" smooth="yes"/>
      <point x="218" y="156" type="line" smooth="yes"/>
      <point x="73" y="172"/>
      <point x="48" y="230"/>
      <point x="48" y="283" type="curve"/>
      <point x="48" y="342"/>
      <point x="86" y="415"/>
      <point x="231" y="415" type="curve" smooth="yes"/>
      <point x="280" y="415"/>
      <point x="324" y="407"/>
      <point x="358" y="397" type="curve" smooth="yes"/>
      <point x="381" y="391"/>
      <point x="395" y="366"/>
      <point x="388" y="343" type="curve" smooth="yes"/>
      <point x="382" y="320"/>
      <point x="357" y="306"/>
    </contour>
    <contour>
      <point x="158" y="634" type="curve" smooth="yes"/>
      <point x="186" y="607"/>
      <point x="225" y="568"/>
      <point x="250" y="543" type="curve" smooth="yes"/>
      <point x="267" y="526"/>
      <point x="266" y="497"/>
      <point x="249" y="480" type="curve" smooth="yes"/>
      <point x="232" y="463"/>
      <point x="203" y="462"/>
      <point x="186" y="479" type="curve" smooth="yes"/>
      <point x="161" y="504"/>
      <point x="124" y="543"/>
      <point x="96" y="570" type="curve" smooth="yes"/>
      <point x="79" y="586"/>
      <point x="79" y="615"/>
      <point x="95" y="633" type="curve" smooth="yes"/>
      <point x="112" y="650"/>
      <point x="141" y="651"/>
    </contour>
    <contour>
      <point x="192" y="543" type="curve" smooth="yes"/>
      <point x="216" y="567"/>
      <point x="255" y="607"/>
      <point x="282" y="634" type="curve" smooth="yes"/>
      <point x="299" y="651"/>
      <point x="328" y="650"/>
      <point x="345" y="633" type="curve" smooth="yes"/>
      <point x="362" y="616"/>
      <point x="363" y="587"/>
      <point x="346" y="570" type="curve" smooth="yes"/>
      <point x="319" y="543"/>
      <point x="280" y="503"/>
      <point x="256" y="479" type="curve" smooth="yes"/>
      <point x="239" y="462"/>
      <point x="210" y="463"/>
      <point x="193" y="480" type="curve" smooth="yes"/>
      <point x="176" y="497"/>
      <point x="175" y="526"/>
    </contour>
  </outline>
</glyph>
<glyph name="tcaron" format="1">
  <advance width="352"/>
  <unicode hex="0165"/>
  <outline>
    <contour>
      <point x="353" y="635" type="curve" smooth="yes"/>
      <point x="330" y="502" type="line" smooth="yes"/>
      <point x="326" y="478"/>
      <point x="298" y="463"/>
      <point x="275" y="467" type="curve" smooth="yes"/>
      <point x="251" y="471"/>
      <point x="230" y="495"/>
      <point x="234" y="518" type="curve" smooth="yes"/>
      <point x="257" y="651" type="line" smooth="yes"/>
      <point x="261" y="675"/>
      <point x="289" y="690"/>
      <point x="312" y="686" type="curve" smooth="yes"/>
      <point x="336" y="682"/>
      <point x="357" y="658"/>
    </contour>
    <contour>
      <point x="180" y="499" type="curve" smooth="yes"/>
      <point x="180" y="131" type="line" smooth="yes"/>
      <point x="180" y="78"/>
      <point x="216" y="53"/>
      <point x="284" y="52" type="curve" smooth="yes"/>
      <point x="308" y="52"/>
      <point x="327" y="31"/>
      <point x="327" y="7" type="curve" smooth="yes"/>
      <point x="327" y="-17"/>
      <point x="306" y="-36"/>
      <point x="282" y="-36" type="curve" smooth="yes"/>
      <point x="138" y="-33"/>
      <point x="82" y="28"/>
      <point x="82" y="131" type="curve"/>
      <point x="82" y="499" type="line" smooth="yes"/>
      <point x="82" y="523"/>
      <point x="107" y="543"/>
      <point x="131" y="543" type="curve" smooth="yes"/>
      <point x="155" y="543"/>
      <point x="180" y="523"/>
    </contour>
    <contour>
      <point x="38" y="411" type="curve" smooth="yes"/>
      <point x="297" y="411" type="line" smooth="yes"/>
      <point x="321" y="411"/>
      <point x="341" y="391"/>
      <point x="341" y="367" type="curve" smooth="yes"/>
      <point x="341" y="343"/>
      <point x="321" y="323"/>
      <point x="297" y="323" type="curve" smooth="yes"/>
      <point x="38" y="323" type="line" smooth="yes"/>
      <point x="14" y="323"/>
      <point x="-6" y="343"/>
      <point x="-6" y="367" type="curve" smooth="yes"/>
      <point x="-6" y="391"/>
      <point x="14" y="411"/>
    </contour>
  </outline>
</glyph>
<glyph name="Umacron" format="1">
  <advance width="627"/>
  <unicode hex="016A"/>
  <outline>
    <contour>
      <point x="156" y="516" type="curve" smooth="yes"/>
      <point x="156" y="205" type="line" smooth="yes"/>
      <point x="156" y="104"/>
      <point x="216" y="41"/>
      <point x="311" y="41" type="curve" smooth="yes"/>
      <point x="417" y="41"/>
      <point x="471" y="104"/>
      <point x="471" y="208" type="curve" smooth="yes"/>
      <point x="471" y="516" type="line" smooth="yes"/>
      <point x="471" y="540"/>
      <point x="496" y="560"/>
      <point x="520" y="560" type="curve" smooth="yes"/>
      <point x="544" y="560"/>
      <point x="569" y="540"/>
      <point x="569" y="516" type="curve" smooth="yes"/>
      <point x="569" y="208" type="line" smooth="yes"/>
      <point x="569" y="40"/>
      <point x="473" y="-47"/>
      <point x="311" y="-47" type="curve" smooth="yes"/>
      <point x="166" y="-47"/>
      <point x="58" y="40"/>
      <point x="58" y="205" type="curve"/>
      <point x="58" y="516" type="line" smooth="yes"/>
      <point x="58" y="540"/>
      <point x="83" y="560"/>
      <point x="107" y="560" type="curve" smooth="yes"/>
      <point x="131" y="560"/>
      <point x="156" y="540"/>
    </contour>
    <contour>
      <point x="429" y="657" type="curve" smooth="yes"/>
      <point x="188" y="657" type="line" smooth="yes"/>
      <point x="164" y="657"/>
      <point x="144" y="677"/>
      <point x="144" y="701" type="curve" smooth="yes"/>
      <point x="144" y="725"/>
      <point x="164" y="745"/>
      <point x="188" y="745" type="curve" smooth="yes"/>
      <point x="429" y="745" type="line" smooth="yes"/>
      <point x="453" y="745"/>
      <point x="473" y="725"/>
      <point x="473" y="701" type="curve" smooth="yes"/>
      <point x="473" y="677"/>
      <point x="453" y="657"/>
    </contour>
  </outline>
</glyph>
<glyph name="Zcaron" format="1">
  <advance width="571"/>
  <unicode hex="017D"/>
  <outline>
    <contour>
      <point x="513" y="490" type="curve" smooth="yes"/>
      <point x="447" y="390"/>
      <point x="182" y="75"/>
      <point x="127" y="-11" type="curve" smooth="yes"/>
      <point x="114" y="-31"/>
      <point x="84" y="-36"/>
      <point x="64" y="-23" type="curve" smooth="yes"/>
      <point x="44" y="-10"/>
      <point x="36" y="19"/>
      <point x="49" y="39" type="curve" smooth="yes"/>
      <point x="104" y="125"/>
      <point x="371" y="440"/>
      <point x="437" y="540" type="curve" smooth="yes"/>
      <point x="450" y="560"/>
      <point x="479" y="565"/>
      <point x="499" y="552" type="curve" smooth="yes"/>
      <point x="519" y="539"/>
      <point x="527" y="509"/>
    </contour>
    <contour>
      <point x="97" y="559" type="curve" smooth="yes"/>
      <point x="464" y="559" type="line" smooth="yes"/>
      <point x="488" y="559"/>
      <point x="508" y="539"/>
      <point x="508" y="515" type="curve" smooth="yes"/>
      <point x="508" y="491"/>
      <point x="488" y="471"/>
      <point x="464" y="471" type="curve" smooth="yes"/>
      <point x="97" y="471" type="line" smooth="yes"/>
      <point x="73" y="471"/>
      <point x="53" y="491"/>
      <point x="53" y="515" type="curve" smooth="yes"/>
      <point x="53" y="539"/>
      <point x="73" y="559"/>
    </contour>
    <contour>
      <point x="83" y="49" type="curve" smooth="yes"/>
      <point x="488" y="49" type="line" smooth="yes"/>
      <point x="512" y="49"/>
      <point x="532" y="29"/>
      <point x="532" y="5" type="curve" smooth="yes"/>
      <point x="532" y="-19"/>
      <point x="512" y="-39"/>
      <point x="488" y="-39" type="curve" smooth="yes"/>
      <point x="83" y="-39" type="line" smooth="yes"/>
      <point x="59" y="-39"/>
      <point x="39" y="-19"/>
      <point x="39" y="5" type="curve" smooth="yes"/>
      <point x="39" y="29"/>
      <point x="59" y="49"/>
    </contour>
    <contour>
      <point x="272" y="704" type="curve" smooth="yes"/>
      <point x="305" y="728"/>
      <point x="342" y="753"/>
      <point x="370" y="776" type="curve" smooth="yes"/>
      <point x="389" y="791"/>
      <point x="418" y="787"/>
      <point x="432" y="768" type="curve" smooth="yes"/>
      <point x="447" y="750"/>
      <point x="444" y="721"/>
      <point x="426" y="706" type="curve" smooth="yes"/>
      <point x="396" y="683"/>
      <point x="359" y="658"/>
      <point x="324" y="632" type="curve" smooth="yes"/>
      <point x="305" y="618"/>
      <point x="277" y="623"/>
      <point x="263" y="642" type="curve" smooth="yes"/>
      <point x="248" y="661"/>
      <point x="253" y="690"/>
    </contour>
    <contour>
      <point x="218" y="776" type="curve" smooth="yes"/>
      <point x="246" y="753"/>
      <point x="281" y="729"/>
      <point x="316" y="704" type="curve" smooth="yes"/>
      <point x="335" y="690"/>
      <point x="340" y="662"/>
      <point x="326" y="642" type="curve" smooth="yes"/>
      <point x="312" y="623"/>
      <point x="284" y="618"/>
      <point x="264" y="632" type="curve" smooth="yes"/>
      <point x="229" y="657"/>
      <point x="192" y="683"/>
      <point x="162" y="706" type="curve" smooth="yes"/>
      <point x="144" y="721"/>
      <point x="141" y="750"/>
      <point x="156" y="768" type="curve" smooth="yes"/>
      <point x="170" y="787"/>
      <point x="199" y="791"/>
    </contour>
  </outline>
</glyph>
<glyph name="uni02C9" format="1">
  <advance width="432"/>
  <unicode hex="02C9"/>
  <outline>
    <contour>
      <point x="293" y="497" type="curve" smooth="yes"/>
      <point x="138" y="497" type="line" smooth="yes"/>
      <point x="114" y="497"/>
      <point x="94" y="517"/>
      <point x="94" y="541" type="curve" smooth="yes"/>
      <point x="94" y="565"/>
      <point x="114" y="585"/>
      <point x="138" y="585" type="curve" smooth="yes"/>
      <point x="293" y="585" type="line" smooth="yes"/>
      <point x="317" y="585"/>
      <point x="337" y="565"/>
      <point x="337" y="541" type="curve" smooth="yes"/>
      <point x="337" y="517"/>
      <point x="317" y="497"/>
    </contour>
  </outline>
</glyph>
<glyph name="tilde" format="1">
  <advance width="495"/>
  <unicode hex="02DC"/>
  <outline>
    <contour>
      <point x="94" y="545" type="curve" smooth="yes"/>
      <point x="126" y="591"/>
      <point x="164" y="613"/>
      <point x="195" y="613" type="curve" smooth="yes"/>
      <point x="223" y="613"/>
      <point x="242" y="603"/>
      <point x="276" y="576" type="curve" smooth="yes"/>
      <point x="287" y="568"/>
      <point x="294" y="559"/>
      <point x="304" y="559" type="curve" smooth="yes"/>
      <point x="315" y="559"/>
      <point x="318" y="579"/>
      <point x="326" y="591" type="curve" smooth="yes"/>
      <point x="339" y="610"/>
      <point x="369" y="615"/>
      <point x="389" y="601" type="curve" smooth="yes"/>
      <point x="408" y="588"/>
      <point x="415" y="559"/>
      <point x="402" y="539" type="curve" smooth="yes"/>
      <point x="368" y="489"/>
      <point x="337" y="471"/>
      <point x="304" y="471" type="curve" smooth="yes"/>
      <point x="278" y="471"/>
      <point x="253" y="482"/>
      <point x="222" y="506" type="curve" smooth="yes"/>
      <point x="210" y="515"/>
      <point x="205" y="525"/>
      <point x="195" y="525" type="curve" smooth="yes"/>
      <point x="184" y="525"/>
      <point x="178" y="505"/>
      <point x="170" y="493" type="curve" smooth="yes"/>
      <point x="156" y="473"/>
      <point x="127" y="469"/>
      <point x="107" y="483" type="curve" smooth="yes"/>
      <point x="87" y="496"/>
      <point x="81" y="525"/>
    </contour>
  </outline>
</glyph>
<glyph name="quoteleft" format="1">
  <advance width="237"/>
  <unicode hex="2018"/>
  <outline>
    <contour>
      <point x="117" y="361" type="curve" smooth="yes"/>
      <point x="85" y="404"/>
      <point x="62" y="462"/>
      <point x="62" y="521" type="curve" smooth="yes"/>
      <point x="62" y="547"/>
      <point x="66" y="572"/>
      <point x="72" y="587" type="curve" smooth="yes"/>
      <point x="79" y="610"/>
      <point x="108" y="621"/>
      <point x="131" y="614" type="curve" smooth="yes"/>
      <point x="153" y="606"/>
      <point x="170" y="579"/>
      <point x="162" y="557" type="curve" smooth="yes"/>
      <point x="160" y="548"/>
      <point x="160" y="535"/>
      <point x="160" y="521" type="curve" smooth="yes"/>
      <point x="160" y="484"/>
      <point x="169" y="444"/>
      <point x="191" y="415" type="curve" smooth="yes"/>
      <point x="205" y="396"/>
      <point x="199" y="367"/>
      <point x="180" y="353" type="curve" smooth="yes"/>
      <point x="161" y="339"/>
      <point x="132" y="342"/>
    </contour>
  </outline>
</glyph>
<glyph name="perthousand" format="1">
  <advance width="1170"/>
  <unicode hex="2030"/>
  <outline>
    <contour>
      <point x="968" y="330" type="curve" smooth="yes"/>
      <point x="1050" y="330"/>
      <point x="1130" y="262"/>
      <point x="1130" y="143" type="curve" smooth="yes"/>
      <point x="1130" y="33"/>
      <point x="1062" y="-44"/>
      <point x="968" y="-44" type="curve" smooth="yes"/>
      <point x="880" y="-44"/>
      <point x="804" y="34"/>
      <point x="804" y="142" type="curve" smooth="yes"/>
      <point x="804" y="262"/>
      <point x="879" y="330"/>
    </contour>
    <contour>
      <point x="203" y="572" type="curve" smooth="yes"/>
      <point x="285" y="572"/>
      <point x="366" y="504"/>
      <point x="366" y="385" type="curve" smooth="yes"/>
      <point x="366" y="273"/>
      <point x="298" y="198"/>
      <point x="203" y="198" type="curve" smooth="yes"/>
      <point x="117" y="198"/>
      <point x="40" y="274"/>
      <point x="40" y="384" type="curve"/>
      <point x="40" y="504"/>
      <point x="116" y="572"/>
    </contour>
    <contour>
      <point x="633" y="330" type="curve" smooth="yes"/>
      <point x="715" y="330"/>
      <point x="795" y="262"/>
      <point x="795" y="143" type="curve" smooth="yes"/>
      <point x="795" y="33"/>
      <point x="727" y="-44"/>
      <point x="633" y="-44" type="curve" smooth="yes"/>
      <point x="545" y="-44"/>
      <point x="469" y="34"/>
      <point x="469" y="142" type="curve" smooth="yes"/>
      <point x="469" y="262"/>
      <point x="544" y="330"/>
    </contour>
    <contour>
      <point x="968" y="242" type="curve" smooth="yes"/>
      <point x="921" y="242"/>
      <point x="902" y="190"/>
      <point x="902" y="142" type="curve" smooth="yes"/>
      <point x="902" y="98"/>
      <point x="922" y="44"/>
      <point x="968" y="44" type="curve" smooth="yes"/>
      <point x="1018" y="44"/>
      <point x="1032" y="99"/>
      <point x="1032" y="143" type="curve" smooth="yes"/>
      <point x="1032" y="190"/>
      <point x="1012" y="242"/>
    </contour>
    <contour>
      <point x="608" y="497" type="curve" smooth="yes"/>
      <point x="310" y="-12" type="line" smooth="yes"/>
      <point x="298" y="-33"/>
      <point x="268" y="-39"/>
      <point x="248" y="-27" type="curve" smooth="yes"/>
      <point x="227" y="-15"/>
      <point x="218" y="14"/>
      <point x="230" y="34" type="curve" smooth="yes"/>
      <point x="528" y="543" type="line" smooth="yes"/>
      <point x="540" y="564"/>
      <point x="570" y="570"/>
      <point x="590" y="558" type="curve" smooth="yes"/>
      <point x="611" y="546"/>
      <point x="620" y="517"/>
    </contour>
    <contour>
      <point x="203" y="484" type="curve" smooth="yes"/>
      <point x="156" y="484"/>
      <point x="138" y="432"/>
      <point x="138" y="384" type="curve" smooth="yes"/>
      <point x="138" y="340"/>
      <point x="157" y="286"/>
      <point x="203" y="286" type="curve" smooth="yes"/>
      <point x="254" y="286"/>
      <point x="268" y="341"/>
      <point x="268" y="385" type="curve" smooth="yes"/>
      <point x="268" y="432"/>
      <point x="247" y="484"/>
    </contour>
    <contour>
      <point x="633" y="242" type="curve" smooth="yes"/>
      <point x="586" y="242"/>
      <point x="567" y="190"/>
      <point x="567" y="142" type="curve" smooth="yes"/>
      <point x="567" y="98"/>
      <point x="587" y="44"/>
      <point x="633" y="44" type="curve" smooth="yes"/>
      <point x="683" y="44"/>
      <point x="697" y="99"/>
      <point x="697" y="143" type="curve" smooth="yes"/>
      <point x="697" y="190"/>
      <point x="677" y="242"/>
    </contour>
  </outline>
</glyph>
<glyph name="guilsinglleft" format="1">
  <advance width="261"/>
  <unicode hex="2039"/>
  <outline>
    <contour>
      <point x="102" y="216" type="curve" smooth="yes"/>
      <point x="218" y="58" type="line" smooth="yes"/>
      <point x="232" y="39"/>
      <point x="226" y="10"/>
      <point x="207" y="-4" type="curve" smooth="yes"/>
      <point x="188" y="-19"/>
      <point x="158" y="-15"/>
      <point x="144" y="4" type="curve" smooth="yes"/>
      <point x="28" y="162" type="line" smooth="yes"/>
      <point x="14" y="181"/>
      <point x="20" y="210"/>
      <point x="39" y="224" type="curve" smooth="yes"/>
      <point x="58" y="239"/>
      <point x="88" y="235"/>
    </contour>
    <contour>
      <point x="218" y="325" type="curve" smooth="yes"/>
      <point x="102" y="167" type="line" smooth="yes"/>
      <point x="88" y="148"/>
      <point x="58" y="144"/>
      <point x="39" y="159" type="curve" smooth="yes"/>
      <point x="20" y="173"/>
      <point x="14" y="202"/>
      <point x="28" y="221" type="curve" smooth="yes"/>
      <point x="144" y="379" type="line" smooth="yes"/>
      <point x="158" y="398"/>
      <point x="188" y="402"/>
      <point x="207" y="387" type="curve" smooth="yes"/>
      <point x="226" y="373"/>
      <point x="232" y="344"/>
    </contour>
  </outline>
</glyph>
<glyph name="guilsinglright" format="1">
  <advance width="261"/>
  <unicode hex="203A"/>
  <outline>
    <contour>
      <point x="43" y="58" type="curve" smooth="yes"/>
      <point x="160" y="216" type="line" smooth="yes"/>
      <point x="174" y="235"/>
      <point x="204" y="239"/>
      <point x="223" y="224" type="curve" smooth="yes"/>
      <point x="242" y="210"/>
      <point x="248" y="181"/>
      <point x="234" y="162" type="curve" smooth="yes"/>
      <point x="117" y="4" type="line" smooth="yes"/>
      <point x="103" y="-15"/>
      <point x="73" y="-19"/>
      <point x="54" y="-4" type="curve" smooth="yes"/>
      <point x="35" y="10"/>
      <point x="29" y="39"/>
    </contour>
    <contour>
      <point x="160" y="167" type="curve" smooth="yes"/>
      <point x="43" y="325" type="line" smooth="yes"/>
      <point x="29" y="344"/>
      <point x="35" y="373"/>
      <point x="54" y="387" type="curve" smooth="yes"/>
      <point x="73" y="402"/>
      <point x="103" y="398"/>
      <point x="117" y="379" type="curve" smooth="yes"/>
      <point x="234" y="221" type="line" smooth="yes"/>
      <point x="248" y="202"/>
      <point x="242" y="173"/>
      <point x="223" y="159" type="curve" smooth="yes"/>
      <point x="204" y="144"/>
      <point x="174" y="148"/>
    </contour>
  </outline>
</glyph>
<glyph name="trademark" format="1">
  <advance width="776"/>
  <unicode hex="2122"/>
  <outline>
    <contour>
      <point x="206" y="539" type="curve" smooth="yes"/>
      <point x="206" y="286" type="line" smooth="yes"/>
      <point x="206" y="263"/>
      <point x="186" y="243"/>
      <point x="163" y="243" type="curve" smooth="yes"/>
      <point x="140" y="243"/>
      <point x="120" y="263"/>
      <point x="120" y="286" type="curve" smooth="yes"/>
      <point x="120" y="539" type="line" smooth="yes"/>
      <point x="120" y="562"/>
      <point x="140" y="582"/>
      <point x="163" y="582" type="curve" smooth="yes"/>
      <point x="186" y="582"/>
      <point x="206" y="562"/>
    </contour>
    <contour>
      <point x="53" y="582" type="curve" smooth="yes"/>
      <point x="276" y="582" type="line" smooth="yes"/>
      <point x="299" y="582"/>
      <point x="319" y="562"/>
      <point x="319" y="539" type="curve" smooth="yes"/>
      <point x="319" y="516"/>
      <point x="299" y="496"/>
      <point x="276" y="496" type="curve" smooth="yes"/>
      <point x="53" y="496" type="line" smooth="yes"/>
      <point x="30" y="496"/>
      <point x="10" y="516"/>
      <point x="10" y="539" type="curve" smooth="yes"/>
      <point x="10" y="562"/>
      <point x="30" y="582"/>
    </contour>
    <contour>
      <point x="457" y="536" type="curve" smooth="yes"/>
      <point x="446" y="463"/>
      <point x="429" y="341"/>
      <point x="423" y="281" type="curve" smooth="yes"/>
      <point x="421" y="258"/>
      <point x="399" y="240"/>
      <point x="376" y="242" type="curve" smooth="yes"/>
      <point x="353" y="244"/>
      <point x="335" y="266"/>
      <point x="337" y="289" type="curve" smooth="yes"/>
      <point x="343" y="351"/>
      <point x="360" y="475"/>
      <point x="373" y="550" type="curve" smooth="yes"/>
      <point x="376" y="573"/>
      <point x="399" y="589"/>
      <point x="422" y="585" type="curve" smooth="yes"/>
      <point x="445" y="582"/>
      <point x="461" y="559"/>
    </contour>
    <contour>
      <point x="704" y="553" type="curve" smooth="yes"/>
      <point x="721" y="470"/>
      <point x="733" y="362"/>
      <point x="744" y="291" type="curve" smooth="yes"/>
      <point x="747" y="268"/>
      <point x="730" y="246"/>
      <point x="707" y="242" type="curve" smooth="yes"/>
      <point x="684" y="239"/>
      <point x="662" y="256"/>
      <point x="658" y="279" type="curve" smooth="yes"/>
      <point x="649" y="348"/>
      <point x="637" y="454"/>
      <point x="620" y="535" type="curve" smooth="yes"/>
      <point x="615" y="558"/>
      <point x="631" y="581"/>
      <point x="653" y="586" type="curve" smooth="yes"/>
      <point x="676" y="591"/>
      <point x="699" y="575"/>
    </contour>
    <contour>
      <point x="465" y="555" type="curve" smooth="yes"/>
      <point x="496" y="489"/>
      <point x="546" y="386"/>
      <point x="580" y="313" type="curve" smooth="yes"/>
      <point x="590" y="292"/>
      <point x="580" y="266"/>
      <point x="559" y="256" type="curve" smooth="yes"/>
      <point x="538" y="246"/>
      <point x="512" y="256"/>
      <point x="502" y="277" type="curve" smooth="yes"/>
      <point x="468" y="350"/>
      <point x="418" y="453"/>
      <point x="387" y="519" type="curve" smooth="yes"/>
      <point x="377" y="540"/>
      <point x="387" y="566"/>
      <point x="408" y="576" type="curve" smooth="yes"/>
      <point x="429" y="586"/>
      <point x="455" y="576"/>
    </contour>
    <contour>
      <point x="504" y="319" type="curve" smooth="yes"/>
      <point x="535" y="390"/>
      <point x="577" y="482"/>
      <point x="617" y="559" type="curve" smooth="yes"/>
      <point x="627" y="580"/>
      <point x="654" y="589"/>
      <point x="674" y="578" type="curve" smooth="yes"/>
      <point x="695" y="568"/>
      <point x="704" y="541"/>
      <point x="693" y="521" type="curve" smooth="yes"/>
      <point x="655" y="444"/>
      <point x="613" y="354"/>
      <point x="582" y="285" type="curve" smooth="yes"/>
      <point x="573" y="263"/>
      <point x="547" y="253"/>
      <point x="526" y="263" type="curve" smooth="yes"/>
      <point x="504" y="272"/>
      <point x="494" y="298"/>
    </contour>
  </outline>
</glyph>
<glyph name="product" format="1">
  <advance width="589"/>
  <unicode hex="220F"/>
  <outline>
    <contour>
      <point x="417" y="11" type="curve" smooth="yes"/>
      <point x="417" y="520" type="line"/>
      <point x="466" y="476" type="line"/>
      <point x="119" y="476" type="line"/>
      <point x="168" y="520" type="line"/>
      <point x="168" y="11" type="line" smooth="yes"/>
      <point x="168" y="-13"/>
      <point x="143" y="-33"/>
      <point x="119" y="-33" type="curve" smooth="yes"/>
      <point x="95" y="-33"/>
      <point x="70" y="-13"/>
      <point x="70" y="11" type="curve" smooth="yes"/>
      <point x="70" y="520" type="line"/>
      <point x="70" y="544"/>
      <point x="92" y="564"/>
      <point x="119" y="564" type="curve" smooth="yes"/>
      <point x="466" y="564" type="line" smooth="yes"/>
      <point x="493" y="564"/>
      <point x="515" y="544"/>
      <point x="515" y="520" type="curve" smooth="yes"/>
      <point x="515" y="11" type="line" smooth="yes"/>
      <point x="515" y="-13"/>
      <point x="490" y="-33"/>
      <point x="466" y="-33" type="curve" smooth="yes"/>
      <point x="442" y="-33"/>
      <point x="417" y="-13"/>
    </contour>
  </outline>
</glyph>
<glyph name="approxequal" format="1">
  <advance width="537"/>
  <unicode hex="2248"/>
  <outline>
    <contour>
      <point x="23" y="350" type="curve" smooth="yes"/>
      <point x="73" y="428"/>
      <point x="124" y="455"/>
      <point x="176" y="455" type="curve" smooth="yes"/>
      <point x="225" y="455"/>
      <point x="259" y="435"/>
      <point x="299" y="399" type="curve" smooth="yes"/>
      <point x="321" y="381"/>
      <point x="339" y="362"/>
      <point x="365" y="362" type="curve" smooth="yes"/>
      <point x="399" y="362"/>
      <point x="420" y="392"/>
      <point x="448" y="434" type="curve" smooth="yes"/>
      <point x="461" y="453"/>
      <point x="491" y="458"/>
      <point x="511" y="445" type="curve" smooth="yes"/>
      <point x="530" y="431"/>
      <point x="537" y="402"/>
      <point x="524" y="382" type="curve" smooth="yes"/>
      <point x="470" y="302"/>
      <point x="423" y="274"/>
      <point x="365" y="274" type="curve" smooth="yes"/>
      <point x="321" y="274"/>
      <point x="285" y="295"/>
      <point x="239" y="333" type="curve" smooth="yes"/>
      <point x="219" y="351"/>
      <point x="203" y="367"/>
      <point x="176" y="367" type="curve" smooth="yes"/>
      <point x="146" y="367"/>
      <point x="125" y="338"/>
      <point x="101" y="300" type="curve" smooth="yes"/>
      <point x="88" y="280"/>
      <point x="58" y="275"/>
      <point x="38" y="288" type="curve" smooth="yes"/>
      <point x="18" y="301"/>
      <point x="10" y="330"/>
    </contour>
    <contour>
      <point x="23" y="139" type="curve" smooth="yes"/>
      <point x="73" y="217"/>
      <point x="119" y="248"/>
      <point x="176" y="248" type="curve" smooth="yes"/>
      <point x="216" y="248"/>
      <point x="256" y="223"/>
      <point x="296" y="192" type="curve" smooth="yes"/>
      <point x="321" y="173"/>
      <point x="339" y="154"/>
      <point x="366" y="154" type="curve" smooth="yes"/>
      <point x="399" y="154"/>
      <point x="420" y="181"/>
      <point x="448" y="223" type="curve" smooth="yes"/>
      <point x="461" y="243"/>
      <point x="490" y="248"/>
      <point x="510" y="235" type="curve" smooth="yes"/>
      <point x="530" y="222"/>
      <point x="537" y="192"/>
      <point x="524" y="173" type="curve" smooth="yes"/>
      <point x="470" y="91"/>
      <point x="423" y="66"/>
      <point x="366" y="66" type="curve" smooth="yes"/>
      <point x="321" y="66"/>
      <point x="287" y="87"/>
      <point x="242" y="122" type="curve" smooth="yes"/>
      <point x="220" y="139"/>
      <point x="200" y="160"/>
      <point x="176" y="160" type="curve" smooth="yes"/>
      <point x="143" y="160"/>
      <point x="125" y="127"/>
      <point x="101" y="89" type="curve" smooth="yes"/>
      <point x="88" y="69"/>
      <point x="58" y="64"/>
      <point x="38" y="77" type="curve" smooth="yes"/>
      <point x="18" y="90"/>
      <point x="10" y="119"/>
    </contour>
  </outline>
</glyph>
<glyph name="gravecmb" format="1">
  <advance width="0"/>
  <outline>
    <contour>
      <point x="-45" y="626" type="curve" smooth="yes"/>
      <point x="-16" y="589"/>
      <point x="3" y="567"/>
      <point x="30" y="524" type="curve" smooth="yes"/>
      <point x="44" y="504"/>
      <point x="36" y="475"/>
      <point x="16" y="462" type="curve" smooth="yes"/>
      <point x="-4" y="449"/>
      <point x="-33" y="454"/>
      <point x="-46" y="474" type="curve" smooth="yes"/>
      <point x="-73" y="513"/>
      <point x="-90" y="535"/>
      <point x="-117" y="570" type="curve" smooth="yes"/>
      <point x="-132" y="589"/>
      <point x="-127" y="618"/>
      <point x="-108" y="633" type="curve" smooth="yes"/>
      <point x="-89" y="647"/>
      <point x="-60" y="645"/>
    </contour>
  </outline>
</glyph>
<glyph name="ringcmb" format="1">
  <advance width="0"/>
  <outline>
    <contour>
      <point x="126" y="581" type="curve" smooth="yes"/>
      <point x="126" y="518"/>
      <point x="77" y="456"/>
      <point x="-8" y="456" type="curve" smooth="yes"/>
      <point x="-92" y="456"/>
      <point x="-140" y="522"/>
      <point x="-140" y="581" type="curve" smooth="yes"/>
      <point x="-140" y="640"/>
      <point x="-92" y="706"/>
      <point x="-8" y="706" type="curve" smooth="yes"/>
      <point x="77" y="706"/>
      <point x="126" y="644"/>
    </contour>
    <contour>
      <point x="40" y="581" type="curve" smooth="yes"/>
      <point x="40" y="604"/>
      <point x="21" y="620"/>
      <point x="-8" y="620" type="curve" smooth="yes"/>
      <point x="-34" y="620"/>
      <point x="-54" y="602"/>
      <point x="-54" y="581" type="curve" smooth="yes"/>
      <point x="-54" y="560"/>
      <point x="-34" y="542"/>
      <point x="-8" y="542" type="curve" smooth="yes"/>
      <point x="21" y="542"/>
      <point x="40" y="558"/>
    </contour>
  </outline>
</glyph>
<glyph name="threesuperior" format="1">
  <advance width="381"/>
  <outline>
    <contour>
      <point x="103" y="558" type="curve" smooth="yes"/>
      <point x="284" y="558" type="line" smooth="yes"/>
      <point x="307" y="558"/>
      <point x="327" y="538"/>
      <point x="327" y="515" type="curve" smooth="yes"/>
      <point x="327" y="492"/>
      <point x="307" y="472"/>
      <point x="284" y="472" type="curve" smooth="yes"/>
      <point x="103" y="472" type="line" smooth="yes"/>
      <point x="80" y="472"/>
      <point x="60" y="492"/>
      <point x="60" y="515" type="curve" smooth="yes"/>
      <point x="60" y="538"/>
      <point x="80" y="558"/>
    </contour>
    <contour>
      <point x="108" y="297" type="curve" smooth="yes"/>
      <point x="129" y="290"/>
      <point x="157" y="283"/>
      <point x="188" y="283" type="curve" smooth="yes"/>
      <point x="219" y="283"/>
      <point x="250" y="291"/>
      <point x="250" y="316" type="curve" smooth="yes"/>
      <point x="250" y="340"/>
      <point x="222" y="347"/>
      <point x="196" y="347" type="curve" smooth="yes"/>
      <point x="172" y="347"/>
      <point x="154" y="343"/>
      <point x="145" y="340" type="curve" smooth="yes"/>
      <point x="123" y="333"/>
      <point x="98" y="345"/>
      <point x="90" y="367" type="curve" smooth="yes"/>
      <point x="83" y="389"/>
      <point x="95" y="414"/>
      <point x="117" y="422" type="curve" smooth="yes"/>
      <point x="132" y="427"/>
      <point x="160" y="433"/>
      <point x="196" y="433" type="curve" smooth="yes"/>
      <point x="292" y="433"/>
      <point x="336" y="380"/>
      <point x="336" y="316" type="curve" smooth="yes"/>
      <point x="336" y="255"/>
      <point x="299" y="197"/>
      <point x="188" y="197" type="curve" smooth="yes"/>
      <point x="145" y="197"/>
      <point x="107" y="206"/>
      <point x="78" y="217" type="curve" smooth="yes"/>
      <point x="57" y="224"/>
      <point x="45" y="250"/>
      <point x="53" y="272" type="curve" smooth="yes"/>
      <point x="60" y="293"/>
      <point x="86" y="305"/>
    </contour>
    <contour>
      <point x="307" y="478" type="curve" smooth="yes"/>
      <point x="161" y="351" type="line" smooth="yes"/>
      <point x="144" y="335"/>
      <point x="116" y="337"/>
      <point x="101" y="355" type="curve" smooth="yes"/>
      <point x="85" y="372"/>
      <point x="87" y="400"/>
      <point x="105" y="415" type="curve" smooth="yes"/>
      <point x="251" y="542" type="line" smooth="yes"/>
      <point x="268" y="558"/>
      <point x="296" y="556"/>
      <point x="311" y="538" type="curve" smooth="yes"/>
      <point x="327" y="521"/>
      <point x="325" y="493"/>
    </contour>
  </outline>
</glyph>
<glyph name="tildecmb" format="1">
  <advance width="0"/>
  <outline>
    <contour>
      <point x="-164" y="545" type="curve" smooth="yes"/>
      <point x="-132" y="591"/>
      <point x="-94" y="613"/>
      <point x="-63" y="613" type="curve" smooth="yes"/>
      <point x="-35" y="613"/>
      <point x="-15" y="603"/>
      <point x="19" y="576" type="curve" smooth="yes"/>
      <point x="29" y="568"/>
      <point x="36" y="559"/>
      <point x="46" y="559" type="curve" smooth="yes"/>
      <point x="57" y="559"/>
      <point x="60" y="579"/>
      <point x="68" y="591" type="curve" smooth="yes"/>
      <point x="81" y="610"/>
      <point x="111" y="615"/>
      <point x="131" y="601" type="curve" smooth="yes"/>
      <point x="150" y="588"/>
      <point x="157" y="559"/>
      <point x="144" y="539" type="curve" smooth="yes"/>
      <point x="110" y="489"/>
      <point x="79" y="471"/>
      <point x="46" y="471" type="curve" smooth="yes"/>
      <point x="20" y="471"/>
      <point x="-3" y="482"/>
      <point x="-35" y="506" type="curve" smooth="yes"/>
      <point x="-47" y="515"/>
      <point x="-53" y="525"/>
      <point x="-63" y="525" type="curve" smooth="yes"/>
      <point x="-74" y="525"/>
      <point x="-80" y="505"/>
      <point x="-88" y="493" type="curve" smooth="yes"/>
      <point x="-102" y="473"/>
      <point x="-131" y="469"/>
      <point x="-151" y="483" type="curve" smooth="yes"/>
      <point x="-171" y="496"/>
      <point x="-177" y="525"/>
    </contour>
  </outline>
</glyph>
<glyph name="uni0163" format="1">
  <advance width="352"/>
  <outline>
    <contour>
      <point x="180" y="509" type="curve" smooth="yes"/>
      <point x="180" y="141" type="line" smooth="yes"/>
      <point x="180" y="88"/>
      <point x="216" y="63"/>
      <point x="284" y="62" type="curve" smooth="yes"/>
      <point x="308" y="62"/>
      <point x="327" y="41"/>
      <point x="327" y="17" type="curve" smooth="yes"/>
      <point x="327" y="-7"/>
      <point x="306" y="-26"/>
      <point x="282" y="-26" type="curve" smooth="yes"/>
      <point x="138" y="-23"/>
      <point x="82" y="38"/>
      <point x="82" y="141" type="curve"/>
      <point x="82" y="509" type="line" smooth="yes"/>
      <point x="82" y="533"/>
      <point x="107" y="553"/>
      <point x="131" y="553" type="curve" smooth="yes"/>
      <point x="155" y="553"/>
      <point x="180" y="533"/>
    </contour>
    <contour>
      <point x="38" y="421" type="curve" smooth="yes"/>
      <point x="297" y="421" type="line" smooth="yes"/>
      <point x="321" y="421"/>
      <point x="341" y="401"/>
      <point x="341" y="377" type="curve" smooth="yes"/>
      <point x="341" y="353"/>
      <point x="321" y="333"/>
      <point x="297" y="333" type="curve" smooth="yes"/>
      <point x="38" y="333" type="line" smooth="yes"/>
      <point x="14" y="333"/>
      <point x="-6" y="353"/>
      <point x="-6" y="377" type="curve" smooth="yes"/>
      <point x="-6" y="401"/>
      <point x="14" y="421"/>
    </contour>
    <contour>
      <point x="243" y="-94" type="curve" smooth="yes"/>
      <point x="252" y="-111"/>
      <point x="261" y="-133"/>
      <point x="261" y="-154" type="curve" smooth="yes"/>
      <point x="261" y="-209"/>
      <point x="218" y="-261"/>
      <point x="150" y="-293" type="curve" smooth="yes"/>
      <point x="128" y="-303"/>
      <point x="101" y="-293"/>
      <point x="91" y="-272" type="curve" smooth="yes"/>
      <point x="81" y="-250"/>
      <point x="91" y="-223"/>
      <point x="112" y="-213" type="curve" smooth="yes"/>
      <point x="142" y="-199"/>
      <point x="163" y="-179"/>
      <point x="163" y="-154" type="curve" smooth="yes"/>
      <point x="163" y="-149"/>
      <point x="164" y="-143"/>
      <point x="161" y="-138" type="curve" smooth="yes"/>
      <point x="150" y="-117"/>
      <point x="160" y="-89"/>
      <point x="181" y="-77" type="curve" smooth="yes"/>
      <point x="202" y="-66"/>
      <point x="232" y="-73"/>
    </contour>
  </outline>
</glyph>
<glyph name="uni0218" format="1">
  <advance width="531"/>
  <outline>
    <contour>
      <point x="387" y="460" type="curve" smooth="yes"/>
      <point x="342" y="478"/>
      <point x="310" y="488"/>
      <point x="245" y="488" type="curve" smooth="yes"/>
      <point x="192" y="488"/>
      <point x="151" y="460"/>
      <point x="151" y="423" type="curve" smooth="yes"/>
      <point x="151" y="384"/>
      <point x="179" y="347"/>
      <point x="275" y="328" type="curve" smooth="yes"/>
      <point x="442" y="291"/>
      <point x="487" y="219"/>
      <point x="487" y="136" type="curve" smooth="yes"/>
      <point x="487" y="49"/>
      <point x="427" y="-37"/>
      <point x="266" y="-37" type="curve" smooth="yes"/>
      <point x="195" y="-37"/>
      <point x="128" y="-20"/>
      <point x="67" y="15" type="curve" smooth="yes"/>
      <point x="46" y="27"/>
      <point x="39" y="54"/>
      <point x="51" y="75" type="curve" smooth="yes"/>
      <point x="63" y="96"/>
      <point x="90" y="103"/>
      <point x="111" y="91" type="curve" smooth="yes"/>
      <point x="158" y="64"/>
      <point x="211" y="51"/>
      <point x="266" y="51" type="curve" smooth="yes"/>
      <point x="345" y="51"/>
      <point x="389" y="87"/>
      <point x="389" y="136" type="curve" smooth="yes"/>
      <point x="389" y="187"/>
      <point x="348" y="221"/>
      <point x="259" y="242" type="curve" smooth="yes"/>
      <point x="75" y="277"/>
      <point x="53" y="358"/>
      <point x="53" y="423" type="curve"/>
      <point x="53" y="498"/>
      <point x="120" y="576"/>
      <point x="245" y="576" type="curve" smooth="yes"/>
      <point x="326" y="576"/>
      <point x="364" y="564"/>
      <point x="419" y="542" type="curve" smooth="yes"/>
      <point x="441" y="533"/>
      <point x="453" y="507"/>
      <point x="444" y="485" type="curve" smooth="yes"/>
      <point x="435" y="463"/>
      <point x="409" y="451"/>
    </contour>
    <contour>
      <point x="301" y="-168" type="curve" smooth="yes"/>
      <point x="273" y="-196"/>
      <point x="219" y="-249"/>
      <point x="195" y="-273" type="curve" smooth="yes"/>
      <point x="178" y="-290"/>
      <point x="149" y="-289"/>
      <point x="132" y="-272" type="curve" smooth="yes"/>
      <point x="115" y="-255"/>
      <point x="114" y="-226"/>
      <point x="131" y="-209" type="curve" smooth="yes"/>
      <point x="155" y="-185"/>
      <point x="209" y="-132"/>
      <point x="237" y="-104" type="curve" smooth="yes"/>
      <point x="254" y="-87"/>
      <point x="283" y="-88"/>
      <point x="300" y="-105" type="curve" smooth="yes"/>
      <point x="317" y="-122"/>
      <point x="318" y="-151"/>
    </contour>
  </outline>
</glyph>
<glyph name="uni0219" format="1">
  <advance width="459"/>
  <outline>
    <contour>
      <point x="335" y="324" type="curve" smooth="yes"/>
      <point x="307" y="332"/>
      <point x="271" y="339"/>
      <point x="231" y="339" type="curve" smooth="yes"/>
      <point x="182" y="339"/>
      <point x="146" y="322"/>
      <point x="146" y="295" type="curve" smooth="yes"/>
      <point x="146" y="270"/>
      <point x="182" y="260"/>
      <point x="227" y="256" type="curve" smooth="yes"/>
      <point x="270" y="251" type="line" smooth="yes"/>
      <point x="389" y="239"/>
      <point x="429" y="175"/>
      <point x="429" y="111" type="curve" smooth="yes"/>
      <point x="429" y="46"/>
      <point x="390" y="-28"/>
      <point x="238" y="-28" type="curve" smooth="yes"/>
      <point x="182" y="-28"/>
      <point x="125" y="-17"/>
      <point x="73" y="6" type="curve" smooth="yes"/>
      <point x="52" y="15"/>
      <point x="41" y="42"/>
      <point x="51" y="64" type="curve" smooth="yes"/>
      <point x="60" y="85"/>
      <point x="87" y="96"/>
      <point x="109" y="86" type="curve" smooth="yes"/>
      <point x="149" y="69"/>
      <point x="194" y="60"/>
      <point x="238" y="60" type="curve" smooth="yes"/>
      <point x="294" y="60"/>
      <point x="331" y="80"/>
      <point x="331" y="111" type="curve" smooth="yes"/>
      <point x="331" y="139"/>
      <point x="305" y="159"/>
      <point x="260" y="163" type="curve" smooth="yes"/>
      <point x="219" y="168" type="line" smooth="yes"/>
      <point x="74" y="182"/>
      <point x="48" y="242"/>
      <point x="48" y="295" type="curve"/>
      <point x="48" y="354"/>
      <point x="86" y="427"/>
      <point x="231" y="427" type="curve" smooth="yes"/>
      <point x="279" y="427"/>
      <point x="323" y="418"/>
      <point x="357" y="410" type="curve" smooth="yes"/>
      <point x="380" y="404"/>
      <point x="395" y="379"/>
      <point x="389" y="356" type="curve" smooth="yes"/>
      <point x="383" y="333"/>
      <point x="358" y="318"/>
    </contour>
    <contour>
      <point x="296" y="-165" type="curve" smooth="yes"/>
      <point x="268" y="-192"/>
      <point x="215" y="-246"/>
      <point x="191" y="-270" type="curve" smooth="yes"/>
      <point x="174" y="-287"/>
      <point x="145" y="-286"/>
      <point x="128" y="-269" type="curve" smooth="yes"/>
      <point x="111" y="-252"/>
      <point x="110" y="-223"/>
      <point x="127" y="-206" type="curve" smooth="yes"/>
      <point x="151" y="-182"/>
      <point x="206" y="-128"/>
      <point x="234" y="-101" type="curve" smooth="yes"/>
      <point x="251" y="-84"/>
      <point x="280" y="-85"/>
      <point x="297" y="-102" type="curve" smooth="yes"/>
      <point x="313" y="-120"/>
      <point x="313" y="-149"/>
    </contour>
  </outline>
</glyph>
<glyph name="uni2206" format="1">
  <advance width="562"/>
  <outline>
    <contour>
      <point x="317" y="505" type="curve" smooth="yes"/>
      <point x="143" y="-4" type="line" smooth="yes"/>
      <point x="136" y="-27"/>
      <point x="106" y="-38"/>
      <point x="84" y="-31" type="curve" smooth="yes"/>
      <point x="61" y="-23"/>
      <point x="45" y="4"/>
      <point x="53" y="26" type="curve" smooth="yes"/>
      <point x="227" y="535" type="line" smooth="yes"/>
      <point x="234" y="558"/>
      <point x="264" y="569"/>
      <point x="286" y="562" type="curve" smooth="yes"/>
      <point x="309" y="554"/>
      <point x="325" y="527"/>
    </contour>
    <contour>
      <point x="115" y="55" type="curve" smooth="yes"/>
      <point x="435" y="55" type="line" smooth="yes"/>
      <point x="459" y="55"/>
      <point x="479" y="35"/>
      <point x="479" y="11" type="curve" smooth="yes"/>
      <point x="479" y="-13"/>
      <point x="459" y="-33"/>
      <point x="435" y="-33" type="curve" smooth="yes"/>
      <point x="115" y="-33" type="line" smooth="yes"/>
      <point x="91" y="-33"/>
      <point x="71" y="-13"/>
      <point x="71" y="11" type="curve" smooth="yes"/>
      <point x="71" y="35"/>
      <point x="91" y="55"/>
    </contour>
    <contour>
      <point x="416" y="-4" type="curve" smooth="yes"/>
      <point x="242" y="505" type="line" smooth="yes"/>
      <point x="234" y="527"/>
      <point x="250" y="554"/>
      <point x="273" y="562" type="curve" smooth="yes"/>
      <point x="295" y="569"/>
      <point x="325" y="558"/>
      <point x="332" y="535" type="curve" smooth="yes"/>
      <point x="506" y="26" type="line" smooth="yes"/>
      <point x="514" y="4"/>
      <point x="498" y="-23"/>
      <point x="475" y="-31" type="curve" smooth="yes"/>
      <point x="453" y="-38"/>
      <point x="423" y="-27"/>
    </contour>
  </outline>
</glyph>
